<svg id="Layer_1" data-name="Layer 1" xmlns="http://www.w3.org/2000/svg" xmlns:xlink="http://www.w3.org/1999/xlink" viewBox="0 0 4500 2500"><defs><style>.cls-1{fill:none;}.cls-2{fill:#aed3f0;}.cls-3{fill:#c3dcf3;}.cls-10,.cls-11,.cls-12,.cls-13,.cls-14,.cls-15,.cls-16,.cls-17,.cls-18,.cls-19,.cls-20,.cls-21,.cls-22,.cls-23,.cls-24,.cls-25,.cls-26,.cls-27,.cls-28,.cls-29,.cls-3,.cls-30,.cls-31,.cls-32,.cls-33,.cls-34,.cls-35,.cls-36,.cls-37,.cls-38,.cls-39,.cls-40,.cls-41,.cls-42,.cls-43,.cls-44,.cls-47,.cls-48,.cls-49,.cls-50,.cls-51,.cls-52,.cls-53,.cls-54,.cls-55,.cls-56,.cls-57,.cls-58,.cls-59,.cls-60,.cls-61,.cls-62,.cls-63,.cls-64,.cls-65,.cls-66,.cls-68,.cls-69,.cls-8,.cls-9{fill-rule:evenodd;}.cls-4{clip-path:url(#clip-path);}.cls-5{fill:#99c2e9;}.cls-6{fill:#dbeaf8;}.cls-65,.cls-66,.cls-7{fill:#fff;}.cls-8{fill:#ffdde0;}.cls-9{fill:#348579;}.cls-10{fill:#44ae9e;}.cls-11{fill:#fffbfb;}.cls-12{fill:#9ec0da;}.cls-13{fill:url(#linear-gradient);}.cls-14{fill:#49799f;}.cls-15{fill:#2b485e;}.cls-16{fill:#202e53;}.cls-17,.cls-70{fill:#365795;}.cls-18{fill:#417f76;}.cls-19{fill:#ffc787;}.cls-20{fill:#ffab65;}.cls-21{fill:url(#linear-gradient-2);}.cls-22{fill:url(#linear-gradient-3);}.cls-23{fill:url(#linear-gradient-4);}.cls-24{fill:url(#linear-gradient-5);}.cls-25{fill:url(#linear-gradient-6);}.cls-26{fill:url(#linear-gradient-7);}.cls-27{fill:url(#linear-gradient-8);}.cls-28{fill:#3d4b49;fill-opacity:0.47;}.cls-29{fill:#ec6198;}.cls-30{fill:url(#linear-gradient-9);}.cls-31{fill:url(#linear-gradient-10);}.cls-32{fill:url(#linear-gradient-11);}.cls-33{fill:url(#linear-gradient-12);}.cls-34{fill:url(#linear-gradient-13);}.cls-35{fill-opacity:0.27;}.cls-36{fill:url(#linear-gradient-14);}.cls-37{fill:url(#linear-gradient-15);}.cls-38{fill:url(#linear-gradient-16);}.cls-39{fill:url(#linear-gradient-17);}.cls-40,.cls-46{fill:#fc8488;}.cls-41{fill:url(#linear-gradient-18);}.cls-42{fill:#ee5156;}.cls-43{fill:#fb6a6f;}.cls-44{fill:#3f2628;}.cls-45{fill:#c84d51;}.cls-47{fill:url(#linear-gradient-19);}.cls-48{fill:#2f4379;}.cls-49{fill:url(#linear-gradient-20);}.cls-50{fill:url(#linear-gradient-21);}.cls-51{fill:#23325b;}.cls-52{fill:#364d8b;}.cls-53{fill:url(#linear-gradient-22);}.cls-55{fill:#edd573;}.cls-56{fill:#a99748;}.cls-57{fill:url(#linear-gradient-23);}.cls-58{fill:url(#linear-gradient-24);}.cls-59{fill:url(#linear-gradient-25);}.cls-60{fill:#3a2f00;}.cls-61{fill:url(#linear-gradient-26);}.cls-62{fill:url(#linear-gradient-27);}.cls-63{fill:url(#linear-gradient-28);}.cls-64{fill:url(#linear-gradient-29);}.cls-65{fill-opacity:0.72;}.cls-67,.cls-69{fill:#4691d7;}.cls-68{fill:#f5f9fd;}</style><clipPath id="clip-path"><rect class="cls-1" y="0.01" width="4499.99" height="2499.98"/></clipPath><linearGradient id="linear-gradient" x1="1290.51" y1="1789.92" x2="1291.69" y2="1789.92" gradientTransform="matrix(-1504.99, -1672.77, -1672.77, 1504.99, 4938744.24, -533096.9)" gradientUnits="userSpaceOnUse"><stop offset="0" stop-color="#fff" stop-opacity="0"/><stop offset="1" stop-color="#fff"/></linearGradient><linearGradient id="linear-gradient-2" x1="1286.81" y1="1783.97" x2="1287.99" y2="1783.97" gradientTransform="matrix(-0.49, 203.53, 203.53, 0.49, -361227.47, -260922.82)" gradientUnits="userSpaceOnUse"><stop offset="0" stop-color="#00081e" stop-opacity="0"/><stop offset="1" stop-color="#00081e"/></linearGradient><linearGradient id="linear-gradient-3" x1="1285.5" y1="1794.34" x2="1286.69" y2="1794.34" gradientTransform="matrix(233.8, -54.6, -54.6, -233.8, -201823.84, 491782.3)" xlink:href="#linear-gradient-2"/><linearGradient id="linear-gradient-4" x1="1285.46" y1="1823.89" x2="1286.64" y2="1826.85" gradientTransform="matrix(96.21, -4.25, -22.47, -18.19, -81823, 40829.38)" xlink:href="#linear-gradient-2"/><linearGradient id="linear-gradient-5" x1="1284.46" y1="1819.92" x2="1285.65" y2="1822.55" gradientTransform="matrix(95.82, -4.8, -22.38, -20.57, -81458.26, 45857.72)" xlink:href="#linear-gradient-2"/><linearGradient id="linear-gradient-6" x1="1287.53" y1="1830.98" x2="1288.72" y2="1834.48" gradientTransform="matrix(99.93, -3.52, -23.34, -15.06, -85081.59, 34232.62)" xlink:href="#linear-gradient-2"/><linearGradient id="linear-gradient-7" x1="1283.87" y1="1812.79" x2="1285.06" y2="1814.77" gradientTransform="matrix(106.14, -6.77, -24.78, -29, -90495.25, 63311.63)" xlink:href="#linear-gradient-2"/><linearGradient id="linear-gradient-8" x1="1284.48" y1="1796.19" x2="1285.66" y2="1796.19" gradientTransform="matrix(161.98, -59.81, -59.81, -161.98, -99856.81, 369759.53)" gradientUnits="userSpaceOnUse"><stop offset="0" stop-color="#ff5222" stop-opacity="0"/><stop offset="1" stop-color="#ff5222"/></linearGradient><linearGradient id="linear-gradient-9" x1="1281.45" y1="1795.99" x2="1282.63" y2="1795.99" gradientTransform="matrix(135.51, 0, 0, -91.08, -172276.28, 166122.5)" gradientUnits="userSpaceOnUse"><stop offset="0" stop-color="#830005" stop-opacity="0"/><stop offset="1" stop-color="#830005"/></linearGradient><linearGradient id="linear-gradient-10" x1="1296.27" y1="1788.82" x2="1297.45" y2="1788.82" gradientTransform="matrix(-188.51, -66.32, -66.32, 188.51, 364590.23, -248931.61)" xlink:href="#linear-gradient"/><linearGradient id="linear-gradient-11" x1="1292" y1="1791.81" x2="1293.19" y2="1791.81" gradientTransform="matrix(-154.8, -422.39, -422.39, 154.8, 958628.1, 270807.42)" xlink:href="#linear-gradient-9"/><linearGradient id="linear-gradient-12" x1="1302.03" y1="1799.78" x2="1303.22" y2="1799.7" gradientTransform="matrix(-28.77, -70.01, -78.49, 25.66, 180383.96, 47219.82)" xlink:href="#linear-gradient-9"/><linearGradient id="linear-gradient-13" x1="1286.34" y1="1794.55" x2="1287.53" y2="1794.55" gradientTransform="matrix(197.9, -81.3, -81.3, -197.9, -106771.3, 462108.28)" xlink:href="#linear-gradient-2"/><linearGradient id="linear-gradient-14" x1="1291.78" y1="1790.14" x2="1292.97" y2="1790.14" gradientTransform="matrix(-530, -426.98, -426.98, 530, 1451301.36, -395498.77)" xlink:href="#linear-gradient-8"/><linearGradient id="linear-gradient-15" x1="1289.65" y1="1786.85" x2="1290.84" y2="1786.85" gradientTransform="matrix(-161.39, 354.02, 354.02, 161.39, -422409.86, -742943.4)" xlink:href="#linear-gradient-8"/><linearGradient id="linear-gradient-16" x1="1287.06" y1="1786.42" x2="1288.25" y2="1786.42" gradientTransform="matrix(49.16, 267.54, 267.54, -49.16, -539255.18, -254426.43)" xlink:href="#linear-gradient-8"/><linearGradient id="linear-gradient-17" x1="1285.15" y1="1794.09" x2="1286.33" y2="1794.09" gradientTransform="matrix(204.09, -26.24, -26.24, -204.09, -213355.87, 401954.95)" xlink:href="#linear-gradient-2"/><linearGradient id="linear-gradient-18" x1="1298.12" y1="1795.33" x2="1299.31" y2="1795.33" gradientTransform="matrix(-67.9, -111.99, -111.99, 67.9, 290628.19, 26011.48)" gradientUnits="userSpaceOnUse"><stop offset="0" stop-color="#ffe9ea" stop-opacity="0"/><stop offset="1" stop-color="#ffe9ea"/></linearGradient><linearGradient id="linear-gradient-19" x1="1302.99" y1="1798.18" x2="1304.18" y2="1798.16" gradientTransform="matrix(-43.89, -69.43, -70.68, 43.11, 185761.01, 15435)" xlink:href="#linear-gradient"/><linearGradient id="linear-gradient-20" x1="1287.08" y1="1794.34" x2="1288.26" y2="1794.34" gradientTransform="matrix(231.26, -115.43, -115.43, -231.26, -89078.81, 565664.77)" xlink:href="#linear-gradient-2"/><linearGradient id="linear-gradient-21" x1="1284.84" y1="1803.96" x2="1286.02" y2="1804.64" gradientTransform="matrix(93.8, -27, -46.82, -54.09, -34527.02, 134356.62)" xlink:href="#linear-gradient-2"/><linearGradient id="linear-gradient-22" x1="1285.5" y1="1797.33" x2="1286.68" y2="1797.33" gradientTransform="matrix(251.76, 0, 0, -85.65, -322089.08, 155942.36)" xlink:href="#linear-gradient-2"/><linearGradient id="linear-gradient-23" x1="1283.03" y1="1789.57" x2="1284.21" y2="1789.73" gradientTransform="matrix(145.38, 137.35, 128.85, -191.62, -415093.32, 166979.65)" xlink:href="#linear-gradient-9"/><linearGradient id="linear-gradient-24" x1="1296.36" y1="1795.37" x2="1297.55" y2="1795.37" gradientTransform="matrix(-30.82, -167.29, -167.29, 30.82, 342286.18, 161776.52)" xlink:href="#linear-gradient"/><linearGradient id="linear-gradient-25" x1="1298.46" y1="1789.64" x2="1299.64" y2="1789.13" gradientTransform="matrix(-157.9, -105.58, -304.84, 58.6, 752413.88, 32364.06)" xlink:href="#linear-gradient"/><linearGradient id="linear-gradient-26" x1="1293.14" y1="1791.55" x2="1294.33" y2="1791.55" gradientTransform="matrix(-218.96, -347.31, -347.31, 218.96, 906922.37, 57675.2)" xlink:href="#linear-gradient"/><linearGradient id="linear-gradient-27" x1="1296.11" y1="1793.51" x2="1297.3" y2="1793.84" gradientTransform="matrix(-96.82, -203.87, -153.57, 128.53, 402635.71, 34409.8)" xlink:href="#linear-gradient"/><linearGradient id="linear-gradient-28" x1="1297.2" y1="1791.46" x2="1298.39" y2="1791.16" gradientTransform="matrix(-114.29, -131.49, -181.27, 82.9, 475331.86, 22681.64)" xlink:href="#linear-gradient"/><linearGradient id="linear-gradient-29" x1="1294.62" y1="1794.1" x2="1295.8" y2="1795.35" gradientTransform="matrix(-88.14, -396.93, -139.8, 250.25, 367459.29, 65843.78)" xlink:href="#linear-gradient"/></defs><g id="c88"><rect class="cls-2" y="0.01" width="4499.99" height="2499.98"/><path class="cls-3" d="M4500,2500H1777c189.78-256.15,452-422.81,769.46-468.43,166.19-23.88,340.45-30.36,507.55-11,383.85,44.45,1066.8,236.35,1413.68,6.61q16.72-11.06,32.36-23.42Zm0-1909c-58.36-60-123.24-112.56-193-155.43-161.9-99.45-358.3-141.68-543.07-173.82C2856.89,103.89,1954.37,580,1054,381.88,806.84,327.5,501.57,201.07,301.87,0H4500Z"/><rect class="cls-1" y="0.01" width="4499.99" height="2499.98"/><g class="cls-4"><rect class="cls-5" x="1324.5" y="970.01" width="403.81" height="423.27"/><path class="cls-6" d="M2048.49,1417.24V970L1874,783,1699.13,970v447.23Z"/><path class="cls-7" d="M1874,783,1699.13,970H1324.49l178-187Z"/><rect class="cls-5" x="2392.2" y="1058.83" width="493.95" height="474.34"/><path class="cls-6" d="M3277.81,1560v-501.2L3064.34,849.24l-213.88,209.59V1560Z"/><path class="cls-7" d="M3064.34,849.24l-213.88,209.59H2392.19l217.69-209.59Z"/><rect class="cls-5" x="3569.51" y="1239.07" width="358.98" height="440.47"/><path class="cls-6" d="M4213.12,1704.48V1239.07L4058,1044.44l-155.45,194.63v465.41Z"/><path class="cls-7" d="M4058,1044.44l-155.45,194.63H3569.49l158.22-194.63Z"/><rect class="cls-5" x="130.5" y="566.58" width="513.75" height="945.57"/><rect class="cls-7" x="388.54" y="664.42" width="105.23" height="208.15"/><path class="cls-8" d="M493.77,670.05H395.09V872.57h-6.56V664.42H493.77Z"/><rect class="cls-7" x="388.54" y="971.89" width="105.23" height="208.15"/><path class="cls-8" d="M493.77,977.52H395.09V1180h-6.56V971.89H493.77Z"/><path class="cls-6" d="M1454.75,1552.66V566.58L1049.5,324.51,644.26,566.58v986.08Z"/><path class="cls-7" d="M1049.5,324.51,644.26,566.58H124.13L536.49,324.51Z"/><rect class="cls-7" x="1078.29" y="549.72" width="156.21" height="157.21"/><rect class="cls-7" x="897.17" y="549.72" width="156.21" height="157.21"/><path class="cls-9" d="M66.66,1259.26c14.3-16.68,44.79-11,67.16-22.23,8.46-4.26,11.76-26,27.21-20.88,20.53,6.88,21.65,18.08,36.82,25.69,9.92,5,20.77-22.51,27.18-16,3.93,3.91,2,13.19,4.8,16,3.37,3.39,14.79-15.7,20.81-9.63,3.41,3.39-1.15,14.87,1.6,17.63,1.32,1.33,6.05-4.78,8-4.78,13.22,0,10.51,10.54,16,16,2.71,2.76,6.92-18.19,14.41-14.42a100.79,100.79,0,0,1,22.41,16c4.52,4.57,8.62-10,14.37-12.85,16.25-8.13,25,15.46,30.41,20.87.21.21,10.33-18.08,17.61-14.45,4.14,2.1,23.17,13.27,27.21,11.24,3.31-1.64,4.73-11.24,11.2-8,5.19,2.62,3.62,11.45,9.61,14.46,9,4.57,10.06-20.57,24-11.24,8.94,6,4.41,22.09,9.6,27.29,6.26,6.29,16-3.31,20.81,11.25.83,2.54-1.88,9.91,0,8,5.15-5.16,27.84-27.61,30.41-28.9,10.86-5.45,11.24,19.23,17.61,16.06,9.4-4.71,14.68-30.93,30.38-25.7,12.87,4.33,10.75,18.82,17.61,25.7,1.08,1.08,6.33-17.7,12.8-14.45,6,3,3.31,11.34,6.4,14.45,3.31,3.31,17.13-5.31,25.62,3.21,6.19,6.21,4.17,20.25,8,24.09,6.09,6.11,15.83-12.36,24-9.64,7.27,2.41,4.21,26.29,9.6,20.88,6.72-6.74,8.94-17.46,19.21-20.88,7.9-2.65,19.21,16.06,19.21,16.06s10.75-25.1,19.21-20.88c11.37,5.73,2.15,21.44,8,27.3,2.78,2.8,21.89-19.51,28.78-20.87,26.86-5.38,11.2,28.87,19.21,36.93,3.27,3.28,15.24-17.24,24-12.84,10.4,5.2-5.33-9.12,1.6-16.06,12.7-12.78,17.57,12.81,20.81,16.06.07.07,15.17-21.3,22.41-17.67,4.87,2.45,11.55,12.71,12.8,17.67.21.87-.17,11.24,0,11.24,9.47,0,19.42-25.59,38.38-16.06,6.82,3.38,8.11,13.19,9.61,19.27a19,19,0,0,1-.07,5.76,13.39,13.39,0,0,0-1.53,5.44c0,2.45,1-1.39,1.53-5.44,2.89-5.94,8.84-12.78,9.67-18.61,1.5-10.44-3.51-35.12,6.41-41.75,11.76-7.85,17.05,5.79,19.2,14.45.91,3.67,1.6,15,1.6,11.24,0-6.59,14.65-39.9,25.62-28.9,5.11,5.16,1.35,17.56,8,20.87,6,3,14.34-9.67,20.81-6.42,8.81,4.4,2,37.7,6.41,28.91,11.31-22.7,26.48,0,33.61,0,9.5,0,8.6-19.48,17.61-22.49,10.93-3.66,20.53-3.7,25.58,6.43a32.53,32.53,0,0,1,1.6,4.82v-3.22c0-14.34,34.38-34.66,40-17.66,4.35,13,9.23,5.2,22.41,9.63,11,3.67-.38,23.67,4.81,28.91.34.35,22.65-8,27.21-8,3.79,0,16.53,12.29,19.17,9.6,12.29-12.29-9.53-60.18,32-49.75,27.45,6.88,4.69,40,9.6,45,5.67,5.65,21.44-6.91,28.81-3.21,6.23,3.1,4.67,16.3,3.07,24.29-1.12,2-1.47,6.18-1.47,6.18s.74-2.55,1.47-6.18a.75.75,0,0,1,.14-.24c3-4.54,22.44-29.67,27.17-27.27,3.62,1.82,5.57,7.2,6.54,13.58,11.21.39,27.53,16.34,27.53,16.34s3.41-26.49,13.81-30c8.74-2.93,68.28,29.29,71.31,32.3,3.16,3.21,2.29-6.08,2.29-6.92,0-4.36,10.51-42.52,20.71-32.29,3.3,3.32,2.29,11.42,2.29,16.13,0,22.13,25.65,1.78,29.89,23.08,1.78,8.93-4.1,25.2-6.19,30.54-.45,1.12-.69,1.78-.69,1.78s.27-.66.69-1.78c1.85-4.43,7.13-16,13.08-19,17.09-8.55,20.33,21.16,23,18.47,5.67-5.69,1.14-23,4.62-30,6.37-12.82,15.73-5.35,20.29.24-.17,2.48.49,4.4,2.72,4.4.34,0-.77-2.06-2.72-4.4.35-4.5,3.38-11,5-11.76,12.63-6.36,27.6,32.29,27.6,32.29s9.88-30.23,23-34.6c10.47-3.52,18.37,27.68,18.37,27.68s-2.09-37,11.52-41.54c5.71-1.88,15.52,5.41,21.23,12.33-.8,6.07-.11,10.75,1.77,10.75,4.8,0,2.82-5.24-1.77-10.75,1.77-13.06,10.44-32.51,29.37-26.15,6.57,2.2,6.61,19.2,5.81,28.38a6.89,6.89,0,0,0-1.22,3.91c0,3.91.77,1.26,1.22-3.91,6.58-10,37.89-10,37.89-10s-2.22-26.18,6.89-32.29c6.82-4.54,21.26,6.49,28.64,15.95-1.63,6.08-1,11.73,1.25,11.73,5.4,0,3.59-5.51-1.25-11.73,2.3-8.55,9-17.94,22-13.65,11.52,3.84,11.52,34.63,11.52,34.63v-6.94c0-16.1,29.12-23.81,41.37-20.74,11.21,2.79,2.3,34.6,2.3,34.6s34.21-25.59,48.3-16.17c15.55,10.41,14.13,30.48,7.93,51.53,24.26-19.62,65.15-30.86,70.89-19.34,1.21,2.44,7.86,4.22,10.3,2.58,57.55-38.47,135.81-52,208.51-43.88,30.83,3.42,46.83,55.58,82.36,41.3,95.42-38.26,87.66-71.53,190.45-56.8,39.19,5.62,44.3,55.37,77.22,62,51,10.26,96.11-24.09,144.13-18,64.28,8,77.88,97,133.87,111,23.28,5.86,54.39-11.66,77.18-15.5,24.85-4.15,49.21,12.36,72.11,18.08,54.73,13.76,68.86-70.37,120.95-87.79,16.36-5.45,40.89,10.47,46.32,7.75,15.38-7.72,4.59-82.81,43.78-69.72,18.82,6.32,20.07,34.6,33.44,41.33,1.7.84,20-27.75,33.47-23.25,8.53,2.83,4.39,16.41,12.88,20.67,7.24,3.63,8.07-7.92,12.87-10.33,22.69-11.38,24.36,20,54,5.16,1.53-.76,6,0,7.73,0,.83,0,1.81-.42,2.57,0,14,7,7,31.91,20.6,38.72,8.15,4.08,8.88-20.67,18-20.67,40,0,44.47,22.55,72.06-5.16,14.44-14.46,29.75,27.26,33.48,31,.48.52,20.84-30.45,33.44-5.17,3.1,6.21,10.3,18.08,10.3,18.08s21.89-38.08,36.05-31c1.15.6,29.33,32,36,38.75,22.06,22.13,98.93,7.75,115.84,7.75,4.73,0,56.61,26.15,56.61,10.33,0-2,1.54-4.15,2.58-5.16,1.36-1.36,3.44-1.75,5.15-2.59,11-5.51,26.06,5.17,36.05,5.17,5.64,0,14.23-13.54,20.57-10.33,5.84,2.93,1.18,18,7.72,18l5.15-5.14c12-18,24.46-24.54,41.2-7.75.66.63,2.37,10.51,5.15,7.75,8.56-8.62,12.32-12.67,23.14-18.08,26.24-13.16,17.68,17.32,15.77,22.52a1.31,1.31,0,0,0-.32.7c0,.1.14-.14.32-.7,1.63-2.17,8.73-6.6,10-7,5.08-1.71,44.79,1.78,72.87,5.41,6.79-14.69,19.1-25.83,34.8-20.59,2.78.94,10.68,20.77,11.27,20.77,6.79,0,16.43-19.41,26.38-9.46,4.77,4.81,4.14,13,5.64,18.88.9,3.74,1.88,15.15,1.88,11.35,0-4.51.9-3.6,1.88-7.58,5-20,11.55-20.49,24.46-7.54,1.6,1.61,9.74-6.77,11.31-7.54,6.92-3.49,12.66,8.94,15,11.31,6.61,6.64,4.84-19.76,13.19-17,9.81,3.28,18.23,20.14,24.46,26.42,2.4,2.41,3.52-3,3.76-3.77,3.27-9.88,13.92-14,24.46-11.34,8.7,2.2,27.39,24.54,28.23,24.54,10,0,19.52-18.89,33.89-18.89,6.64,0,16.14-2.37,18.82,5.69.25.74,2.89,9.25,3.76,7.54,4.14-8.31,5.15-23.49,17-26.42,8.25-2.1,14.65,21.15,20.67,15.08,2.23-2.2,33.89-25.31,33.89-7.54,0,3.84,1.88,11.34,1.88,11.34s14.09-18.19,24.46-20.77c8.18-2.06,16.95,18.85,16.95,18.85s25.54-30.4,41.41-26.42c17.43,4.39,6.79,21.92,15,30.23.46.42,1.26,0,1.88,0,6.13,0,21.61-19.9,30.14-11.35,5.81,5.83,2.75,17.35,15,13.23,11.45-3.84,20.46-18.36,35.77-13.23,45.31,15.15,27,146.69,13.43,164.91-61.76,82.57-272.05,73-365.34,73-81,0-161.15-17.45-242.06-25-98.06,68.21-261.54,84.55-358.52,96-205.2,24.22-415.56,43-622.88,18.08-230.37-27.72-470.44-69.09-702.65-59.38-110.65,4.61-224.3,12.92-334.61,12.92-5.47,0-14.72-.32-25.68-.56-17.82,44.54-89.19,63-130.08,68.87-115.63,16.59-211.89,49-331.21,41.55-60.79-3.81-126.66,14.24-186.27,2.3-55.43-11.14-196.3-58-248.74-62a153.28,153.28,0,0,1-21.36,3.07c-83.94,5.58-174-3.63-257.65-11.24-64.1-5.87-128.58-21.09-193.61-8-133.07,26.67-272.51,28.87-408.05,28.87-51.29,0-119.11,16.3-161.63-19.24-20.67-17.28-19.28-50.09-24-73.87-8.39-42.06,12.42-148.78,29.47-214A323.13,323.13,0,0,0-84.82,1490L17.94,1300.49C-17.72,1293.44,13.59,1268.9,66.66,1259.26ZM1856.85,1433h0l-9.5,46a248.63,248.63,0,0,1,2.78-24.86C1851.07,1448.51,1853.64,1441.21,1856.85,1433Z"/><path class="cls-10" d="M3030.93,1404.84c8.42-8.21,17.78-14.91,28.88-18.64,16.36-5.45,40.89,10.47,46.32,7.75,15.38-7.72,4.59-82.81,43.78-69.72,18.82,6.32,20.07,34.6,33.44,41.33,1.7.84,20-27.75,33.47-23.25,8.53,2.83,4.39,16.41,12.88,20.67,7.24,3.63,8.07-7.92,12.87-10.33,22.69-11.38,24.36,20,54,5.16,1.53-.76,6,0,7.73,0,.83,0,1.81-.42,2.57,0,14,7,7,31.91,20.6,38.72,8.15,4.08,8.88-20.67,18-20.67,40,0,44.47,22.55,72.06-5.16,14.44-14.46,29.75,27.26,33.48,31,.48.52,20.84-30.45,33.44-5.17,3.1,6.21,10.3,18.08,10.3,18.08s21.89-38.08,36.05-31c1.15.6,29.33,32,36,38.75,22.06,22.13,98.93,7.75,115.84,7.75,4.73,0,56.61,26.15,56.61,10.33,0-2,1.54-4.15,2.58-5.16,1.36-1.36,3.44-1.75,5.15-2.59,11-5.51,26.06,5.17,36.05,5.17,5.64,0,14.23-13.54,20.57-10.33,5.84,2.93,1.18,18,7.72,18l5.15-5.14c12-18,24.46-24.54,41.2-7.75.66.63,2.37,10.51,5.15,7.75,8.56-8.62,12.32-12.67,23.14-18.08,26.24-13.16,17.68,17.32,15.77,22.52a1.31,1.31,0,0,0-.32.7c0,.1.14-.14.32-.7,1.63-2.17,8.73-6.6,10-7,5.08-1.71,44.79,1.78,72.87,5.41,6.79-14.69,19.1-25.83,34.8-20.59,2.78.94,10.68,20.77,11.27,20.77,6.79,0,16.43-19.41,26.38-9.46,4.77,4.81,4.14,13,5.64,18.88.9,3.74,1.88,15.15,1.88,11.35,0-4.51.9-3.6,1.88-7.58,5-20,11.55-20.49,24.46-7.54,1.6,1.61,9.74-6.77,11.31-7.54,6.92-3.49,12.66,8.94,15,11.31,6.61,6.64,4.84-19.76,13.19-17,9.81,3.28,18.23,20.14,24.46,26.42,2.4,2.41,3.52-3,3.76-3.77,3.27-9.88,13.92-14,24.46-11.34,8.7,2.2,27.39,24.54,28.23,24.54,10,0,19.52-18.89,33.89-18.89,6.64,0,16.14-2.37,18.82,5.69.25.74,2.89,9.25,3.76,7.54,4.14-8.31,5.15-23.49,17-26.42,8.25-2.1,14.65,21.15,20.67,15.08,2.23-2.2,33.89-25.31,33.89-7.54,0,3.84,1.88,11.34,1.88,11.34s14.09-18.19,24.46-20.77c8.18-2.06,16.95,18.85,16.95,18.85s25.54-30.4,41.41-26.42c17.43,4.39,6.79,21.92,15,30.23.46.42,1.26,0,1.88,0,6.13,0,21.61-19.9,30.14-11.35a14.87,14.87,0,0,1,3.09,5.17c-21.78,8.83-39.91,33.23-53.13,46.5-.52.52-13.05-15.33-14.93-16.83-10-8.06-28.74-7.36-41-5.62-21.4,3.07-34.48,17.53-54.07,22.45-8.29,2.09.31-15-7.49-15-25.5,0-35.56,11.35-52.23,28.07-2.57,2.62-9.11-12-11.17-13.09-7.93-4-22.06,5.79-28,9.35-9.85,5.94-14.31,34.36-22.42,26.19-10.75-10.79,9.37-44.9,9.37-44.9s-19-8.62-28-5.62c-5.95,2-11.58,20.39-18.61,16.86-27.46-13.79-34.7-36.34-69-1.88-4.74,4.75-33.06-30.44-41-22.45-5.32,5.34-6.23,35.54-11.17,20.6-2.44-7.26-3.51-13.16-13.08-11.24-14.38,2.89-56.41,5.34-65.28,18.71-1.85,2.79-3.73,9.35-3.73,9.35s-24.32-18.22-37.3-15c-8.63,2.16-12.43,8.41-16.77,15-2.2,3.29-3.76,15.16-3.76,11.25,0-12.4-5.36-24.79-13-9.36a53.51,53.51,0,0,1-3.73,5.59s-3-11.21-7.44-11.21c-11.35,0-21.19,11.07-24.85,17-.42,2.16-.94,3.59-1.29,3.59-.55,0,0-1.43,1.29-3.59,1.36-7.16,1.25-22.28-12.46-18.86-19,4.75-20.91,24.55-35.45,31.81-3.52,1.78,2.5-7.47,3.72-11.21,2.71-8.13,5.84-18.22,1.88-26.22-3.87-7.75-26.27,16.87-28,16.87V1512c0-10-1.64-27.86-9.33-35.57-11.13-11.17-32.08,16.47-39.18,9.35-5.6-5.58-10.09-19.83-20.49-22.44-21.86-5.49-42.67,6.42-59.68,15-10.09,5.06-18.59-27.33-33.58-24.33-41.59,8.34-41.2,28.07-89.54,28.07-12.07,0-29-2-39.18,5.62-3.86,2.93-15.59,19.9-16.77,18.71-10.2-10.23-16.78-38.37-33.58-41.16-16.29-2.72-35.22,3.32-42.91,18.71-5.92,11.84-5.19-1.46-14.93-11.24-15.59-15.64-32.43-4.85-44.75,7.51-3.9,3.87-8.42,17.84-5.6,9.35,2.3-6.87.59-29.81-7.45-31.84-14.3-3.56-39.18,20.6-39.18,20.6s0-34.94-13.05-39.31c-8-2.68-20.53,15-20.53,15s2-24.19-5.6-31.8c-13.12-13.2-35.81,16.44-42.87,9.35-4.84-4.85,3.16-23.56,0-30-1.15-2.3-5.33.45-7.49,1.89-14,9.39-39.87,34.21-56,37.42C3112.78,1444.42,3068.9,1419.53,3030.93,1404.84Zm1470.91,48c5.82-3.74,12.08-6.39,20.08-3.74,10.75,3.6,13.68,12.47,11.66,24.16C4523.21,1465.51,4513.4,1456.54,4501.84,1452.84ZM2636.6,1359.91a99.34,99.34,0,0,1,19.1.49,69.33,69.33,0,0,1,24.47,7.78l-44.09-7.75Z"/><path class="cls-10" d="M-65.15,1553.13c4.94-24.43,10.43-48,15.62-67.79A323.13,323.13,0,0,0-84.82,1490L17.94,1300.49c-35.66-7-4.35-31.59,48.72-41.23,14.3-16.68,44.79-11,67.16-22.23,8.46-4.26,11.76-26,27.21-20.88,20.53,6.88,21.65,18.08,36.82,25.69,9.92,5,20.77-22.51,27.18-16,3.93,3.91,2,13.19,4.8,16,3.37,3.39,14.79-15.7,20.81-9.63,3.41,3.39-1.15,14.87,1.6,17.63,1.32,1.33,6.05-4.78,8-4.78,13.22,0,10.51,10.54,16,16,2.71,2.76,6.92-18.19,14.41-14.42a100.79,100.79,0,0,1,22.41,16c4.52,4.57,8.62-10,14.37-12.85,16.25-8.13,25,15.46,30.41,20.87.21.21,10.33-18.08,17.61-14.45,4.14,2.1,23.17,13.27,27.21,11.24,3.31-1.64,4.73-11.24,11.2-8,5.19,2.62,3.62,11.45,9.61,14.46,9,4.57,10.06-20.57,24-11.24,8.94,6,4.41,22.09,9.6,27.29,6.26,6.29,16-3.31,20.81,11.25.83,2.54-1.88,9.91,0,8,5.15-5.16,27.84-27.61,30.41-28.9,10.86-5.45,11.24,19.23,17.61,16.06,9.4-4.71,14.68-30.93,30.38-25.7,12.87,4.33,10.75,18.82,17.61,25.7,1.08,1.08,6.33-17.7,12.8-14.45,6,3,3.31,11.34,6.4,14.45,3.31,3.31,17.13-5.31,25.62,3.21,6.19,6.21,4.17,20.25,8,24.09,6.09,6.11,15.83-12.36,24-9.64,7.27,2.41,4.21,26.29,9.6,20.88,6.72-6.74,8.94-17.46,19.21-20.88,7.9-2.65,19.21,16.06,19.21,16.06s10.75-25.1,19.21-20.88c11.37,5.73,2.15,21.44,8,27.3,2.78,2.8,21.89-19.51,28.78-20.87,26.86-5.38,11.2,28.87,19.21,36.93,3.27,3.28,15.24-17.24,24-12.84,10.4,5.2-5.33-9.12,1.6-16.06,12.7-12.78,17.57,12.81,20.81,16.06.07.07,15.17-21.3,22.41-17.67,4.87,2.45,11.55,12.71,12.8,17.67.21.87-.17,11.24,0,11.24,9.47,0,19.42-25.59,38.38-16.06,6.82,3.38,8.11,13.19,9.61,19.27a19,19,0,0,1-.07,5.76,13.39,13.39,0,0,0-1.53,5.44c0,2.45,1-1.39,1.53-5.44,2.89-5.94,8.84-12.78,9.67-18.61,1.5-10.44-3.51-35.12,6.41-41.75,11.76-7.85,17.05,5.79,19.2,14.45.91,3.67,1.6,15,1.6,11.24,0-6.59,14.65-39.9,25.62-28.9,5.11,5.16,1.35,17.56,8,20.87,6,3,14.34-9.67,20.81-6.42,8.81,4.4,2,37.7,6.41,28.91,11.31-22.7,26.48,0,33.61,0,9.5,0,8.6-19.48,17.61-22.49,10.93-3.66,20.53-3.7,25.58,6.43a32.53,32.53,0,0,1,1.6,4.82v-3.22c0-14.34,34.38-34.66,40-17.66,4.35,13,9.23,5.2,22.41,9.63,11,3.67-.38,23.67,4.81,28.91.34.35,22.65-8,27.21-8,3.79,0,16.53,12.29,19.17,9.6,12.29-12.29-9.53-60.18,32-49.75,27.45,6.88,4.69,40,9.6,45,5.67,5.65,21.44-6.91,28.81-3.21,6.23,3.1,4.67,16.3,3.07,24.29-1.12,2-1.47,6.18-1.47,6.18s.74-2.55,1.47-6.18a.75.75,0,0,1,.14-.24c3-4.54,22.44-29.67,27.17-27.27,3.62,1.82,5.57,7.2,6.54,13.58,11.21.39,27.53,16.34,27.53,16.34s3.41-26.49,13.81-30c8.74-2.93,68.28,29.29,71.31,32.3,3.16,3.21,2.29-6.08,2.29-6.92,0-4.36,10.51-42.52,20.71-32.29,3.3,3.32,2.29,11.42,2.29,16.13,0,22.13,25.65,1.78,29.89,23.08,1.78,8.93-4.1,25.2-6.19,30.54-.45,1.12-.69,1.78-.69,1.78s.27-.66.69-1.78c1.85-4.43,7.13-16,13.08-19,17.09-8.55,20.33,21.16,23,18.47,5.67-5.69,1.14-23,4.62-30,6.37-12.82,15.73-5.35,20.29.24-.17,2.48.49,4.4,2.72,4.4.34,0-.77-2.06-2.72-4.4.35-4.5,3.38-11,5-11.76,12.63-6.36,27.6,32.29,27.6,32.29s9.88-30.23,23-34.6c10.47-3.52,18.37,27.68,18.37,27.68s-2.09-37,11.52-41.54c5.71-1.88,15.52,5.41,21.23,12.33-.8,6.07-.11,10.75,1.77,10.75,4.8,0,2.82-5.24-1.77-10.75,1.77-13.06,10.44-32.51,29.37-26.15,6.57,2.2,6.61,19.2,5.81,28.38a6.89,6.89,0,0,0-1.22,3.91c0,3.91.77,1.26,1.22-3.91,6.58-10,37.89-10,37.89-10s-2.22-26.18,6.89-32.29c6.82-4.54,21.26,6.49,28.64,15.95-1.63,6.08-1,11.73,1.25,11.73,5.4,0,3.59-5.51-1.25-11.73,2.3-8.55,9-17.94,22-13.65,11.52,3.84,11.52,34.63,11.52,34.63v-6.94c0-16.1,29.12-23.81,41.37-20.74,11.21,2.79,2.3,34.6,2.3,34.6s34.21-25.59,48.3-16.17c15.55,10.41,14.13,30.48,7.93,51.53A119.63,119.63,0,0,1,1903,1375a79.91,79.91,0,0,1-5.39,14.21c-20.46,41.06-39.11-24.36-66.15-4-22,16.51-30.28,56.41-54.11,68.35-11.45,5.76-19.91-36.24-36-28.14-13,6.53-31.81,7.89-44.09,14.07-5,2.48-4.28,12.19-8,14.07-.18.11-29.34-6.7-34.07-6-14.34,2.06-42.1,6.63-42.1,26.15a9.2,9.2,0,0,1-.18,1.6c4.32,3.67,5.6,6.46.18,6.46-2.2,0-.77-3.7-.18-6.46-8.07-6.91-26.79-17-31.87-17.69-29.62-4.23-37.52,20.42-58.12,34.17-1.42,1-14.75-25.34-34.06-22.1-42.14,7.06-52.93,46.64-84.21,62.32-1.12.59-20.85-35.61-38.07-32.15-7.76,1.53-25.55,22.37-30.07,20.1-.52-.28,10.47-39.76,2-48.28-6.4-6.38-25.3-5.72-38.8-.28a44.74,44.74,0,0,1-1.29,6.32c0,.11-9.29,19.59-12,14.07-4.45-9,2.79-16.13,13.33-20.39,1.88-14.41-2.92-31.07-17.33-35.88-21.78-7.3-56.13,6.46-56.13,32.15v2c0-19.86-6.85-29.36-26-34.17-14.75-3.7-14.27,11.17-20,14.07-.94.45-10,8-12,4-8.11-16.27-9-71.35-30.07-78.41-29.75-10-67.16,28.8-92.18,38.19-29.44,11.07-32.53-12.88-54.11-20.1-13.15-4.37-19.17,13.19-26.06,20.1-8.42,8.45-28.43-2.82-38.07,2-16.63,8.31-58.84,92.34-68.17,64.34-2.72-8.21,2.09-26.08-4-32.19-15.38-15.43-48.09,44.23-48.09,44.23s2-8,2-12c0-18.08,1.64-54.67-12-68.35-1.87-1.89-16.87,2-20,2-7.17,0-19.73-7.19-26.06-4-22.38,11.21-3.1,35.29-14,46.26-2.36,2.37-6.33-27.69-10-30.17-11.45-7.68-36.78,19.38-44.09,12-5-5-8.38-14.25-16-18.09-14.58-7.33-40.09,28.14-40.09,28.14s-5.74-28.28-14-24.12c-14.2,7.12-10,30.16-22.06,42.24-4.11,4.12-17.37-41-20.05-46.26-3.2-6.49-6.89,13-12,18.09-2.19,2.23-21.44.56-24,0-12.49-2.48-40.12-30.13-52.12-24.13-18,9.05-10,40.19-20.05,50.27-5.57,5.63-15.45-15.11-26-8-17.71,11.83-20.32,53.41-34.1,60.32-18.62,9.32-28.64-43.39-40.09-50.27-23.31-14-39.67,24.23-58.11,18.08-23.73-7.92-12-45.66-50.11-40.21-24.81,3.56-14.75,30.89-26.06,42.24-14.06,14.1-3.83-31.56-32.05-22.14-29.79,10-30.41,42.56-48.09,60.33-12.11,12.11-36.61-36.94-38.11-36.2-26.51,13.33-7.83,78.37-38.06,88.46-13.4,4.5-2.51-40.18-6-40.18-8.5,0-16.5,34-32.05,30.16-21.47-5.38-35.11-39.52-58.15-36.2C-37.66,1531.87-51.76,1540.81-65.15,1553.13Z"/><path class="cls-11" d="M-125,1744.25S3231.13,1642.66,4543.71,1613l-16.5,82.45-251.06,100.12L111,2185.71Z"/><path class="cls-12" d="M-81.41,1836.46S3633.18,1661,4945.76,1631.37l25.44,192.49L-149.12,2358.32Z"/><path class="cls-13" d="M-81.41,1836.46S3633.18,1661,4945.76,1631.37l25.44,192.49L-149.12,2358.32Z"/><path class="cls-14" d="M-189.14,2255.48S4231.5,1856.29,5072.67,1800l3.86,115.69-852.69,219.26L39.73,2847.26Z"/><path class="cls-15" d="M947.21,2421.51,1388.36,2544l44.83-21.53L997.07,2414.58Z"/><path class="cls-16" d="M999.46,2022.77c-18.46-10.28-36.12-10.44-53,0v396.57c16.38,10.7,33.87,12.12,53,0Z"/><path class="cls-15" d="M1661.26,2321.89l400.67,111.24,40.71-19.55-396.1-98Z"/><path class="cls-16" d="M1708.71,1959.74c-16.76-9.34-32.81-9.49-48.1,0v360.18c14.88,9.72,30.76,11,48.1,0Z"/><path class="cls-15" d="M3146.45,2091.67l312.63,86.8,31.76-15.26-309.06-76.45Z"/><path class="cls-16" d="M3183.47,1809.1c-13.08-7.29-25.59-7.41-37.52,0v281c11.6,7.58,24,8.58,37.52,0Z"/><path class="cls-15" d="M3813.79,2003.28l231.93,64.39,23.56-11.31L3840,1999.64Z"/><path class="cls-16" d="M3841.26,1793.65c-9.71-5.4-19-5.49-27.84,0v208.5c8.61,5.62,17.8,6.37,27.84,0Z"/><path class="cls-16" d="M873.75,2508.4s762.73-145.82,1588.77-283.71c666.42-111.26,2211.14-328.74,2602-363.72l11.07,190-1871.3,545.6L2094.53,2758.49l-943.27-90.59Z"/><path class="cls-17" d="M888.28,2543s3282.36-565.5,4157.6-643.84l-87.76,299.94-27.46,348.09-2821.6,245.9-943.27-90.59Z"/><path class="cls-10" d="M2517.35,892.23c1,181.11,1.88,352.33-3,423.21s15.92,188.19-22,352.11-113.82,422.13-149.41,514.93-81.1,210.76-81.1,210.76,56.12,10.58,57.22,112.46l-287.34,57.38s-66-103.13-80.61-169.15,49.56-480.81,49.56-480.81l323-498S2516.35,711.12,2517.35,892.23Z"/><path class="cls-18" d="M2366.84,1262.66c2.66-5.24,5.51-10.41,8.64-15.51l106.28-120c.23,27.9-4.62,55.61-3.07,83.54,1.86,33.92,10.24,67.82,8,102-3.3,50.22-21.53,99-24.16,148.91-1.24,23.62,41.45,16.29,33.34,51.27-18.15,78.48-112.23,126.14-152.74,191.1-40,64-49.79,158.35-78.67,230-11,27.21-37.83,37.34-51.81,59.58-11.07,17.62,43.81,77.42,50.64,100,1,3.42,11.13,34.71,9.72,35.45-6.51,3.45-76.9-13.88-88.89-15.82-78.06-12.6-172.89,3.25-165.81-107.13,1.25-19.37,5-39.17,8.8-58.16,11.52-57.38,31.66-111.31,56.84-163.2l239.67-369.57S2341.75,1349.08,2366.84,1262.66Z"/><path class="cls-19" d="M1975.78,2087.6c24.55.22,49.07.5,73.34,3.85,81.46,11.28,203,66,267,118.35,4.51,3.66,8.55,7.33,12.18,10.93-32.27,84-66.44,172.51-66.44,172.51s56.12,10.58,57.22,112.46l-287.34,57.38s-66-103.13-80.61-169.15C1942.91,2356.82,1959.6,2209.52,1975.78,2087.6Z"/><path class="cls-20" d="M2195.17,2137.93c46.38,21.12,90.26,46.77,120.92,71.87,4.51,3.66,8.55,7.33,12.18,10.93-32.27,84-66.44,172.51-66.44,172.51s56.12,10.58,57.22,112.46l-142,28.34a22.46,22.46,0,0,0-6.34-4.69c-14.83-7.11-36.14,2.25-50.69,4.91-14.23,2.61-30.31.42-43.67-5.13-16.69-6.94-37.66-22.41-39.49-42.31-1-11.24,27.56-5.75,35-6.5,25.49-2.58,52.39-15.13,75.13-26.48,6.48-3.25,19.12-8.83,21.81-16.35,5.62-15.77-14.92-29.54-12.62-45.36,1.85-12.88,8.69-24.62,13.06-36.7,6.26-17.3,10-36.34,13.81-54.3,8.61-40.75,8.36-83.89,13.12-125.26C2197.55,2164.63,2196.22,2151.39,2195.17,2137.93Z"/><path class="cls-19" d="M1565.52,1399.36c-10.62,16.51-80,129.69-103.55,213.39s-34,106.24-27.47,165.12,3.9,83.53,3.59,93.39,41.15,441.53,47.63,518.7,16,185.31,20.06,198.32,137.78,9.22,137.78,9.22,71.72-353.09,62.62-481.75-42.59-253.43-35.73-273.67,160.92-100.35,160.92-100.35l41.53-137.64S1576.15,1382.84,1565.52,1399.36Z"/><path class="cls-20" d="M1833.22,1574.8c-7.69,8.61-15.28,17.16-23,24.93-45.1,45.34-99.7,95.78-157.45,124.79-23.66,11.91-50.94,18.15-77.29,19.84-12.06.81-34.72-1.24-41.48,11.83-4.23,8.11,3,15.19,10.44,18,11.18,4.3,57.22,11.21,46.84,34-11.4,25-65.47,33.9-88.88,33.59-6.28-.08-31.27-4.08-29.47,9.83,6.61,51.52,88.83,24.62,106.93,69.82,5.39,13.41,2.18,30.78,2.13,44.89-.06,21.48,2.65,42.77,6.25,64,7.78,46,12.7,92.63,23,138.08,7.08,31.31,20,61.15,24.46,93.13,7.06,50.72-8.58,94.72-16,144.11-6.73,44.83-8.61,90.36-13.56,135.39-2.19,19.73-1.94,38.19,1.52,57,20.53-.05,36-.5,36-.5s71.72-353.09,62.62-481.75-42.59-253.43-35.73-273.67,160.92-100.35,160.92-100.35l41.53-137.64S1857.32,1592.49,1833.22,1574.8Z"/><path class="cls-16" d="M1028.44,1873.26l463.7,62.9-23.61,66.74-481.07-72.76Z"/><path class="cls-21" d="M1016,1902.1c6.61,5.58,14.86,9.3,22.86,12.63,26.23,10.91,55.17,16.1,83.15,20.21,77.81,11.41,154,19.29,232.66,22.24,39,1.47,80.94,5.85,119.77-.11,3.71-.56,7.41-1.28,11.09-2.11l-17,47.94-481.21-72.73Z"/><path class="cls-20" d="M777.92,2050.41c-1.69,19.23-15.55,40.17-1.3,57.29,9.87,11.81,20.57,23.45,29.67,35.75,7.94,10.71,16.76,21.11,25.74,31.21,2.48,2.79,6.81,9.53,12.32,7,4.48-2,5.92-10.47,7.28-14.09,3.73-10.09,3.34-19.55,5-30.21,6.09-38.42-10.33-88.92-56-99.18"/><path class="cls-20" d="M770.38,1915.57c.63,5.09-4.64,12.89-6,17.94-3.16,11.41-8.8,23.73-10.65,35.24-2.09,13.19,3.31,26,7.85,38.27,7.78,21,15.4,46,18.46,67.95,1.3,9.39,3.26,23,7.83,31.22,4.88,8.78,27.11,18,35.26,21.65,5.42,2.44,24.37,12.68,29.67,5.54,9.71-13.1,8.38-33.93,8.38-48.83,0-24.61-4.57-47.15-7.26-71.5-2.22-19.77-6.31-39-17.35-56.37-10.31-16.22-23.21-27-39.18-37.75-2.32-1.58-6.65-5-10.07-5"/><path class="cls-16" d="M836.31,2080.88c-1.41,18.4,3.9,38.45,5.32,57,2.93,38.2,9.54,84.67,35,115.29,11.9,14.3,24.27,25.71,38.47,37.59,21.08,17.63,49.45,22.54,75.93,22.54,8.33,0,22.3-1.64,28.47-9,14.45-17.21,12.37-44,2.47-61.52-3.24-5.74-55.9-21.15-64.9-30.2-21.3-21.35-24.26-53.52-27.47-82.7-8.83-79.48,4.48-161.73,4.48-241.57,0-24.18,1.05-55-10-77.18-2.93-5.85-4.95-13.88-10.49-18-31-23.35-67.82,13.44-78.45,41.08-8.11,21.21-10.65,44.7-12,67.19-.72,12.49-4.21,25-5,37.58a535.36,535.36,0,0,0,0,71.65c1,13.74,2.47,27.4,3.52,41.12.52,7-.09,15.4,4,21.54"/><path class="cls-22" d="M870.46,1792.08l.11,2.84c31.63-9.61,35.95,41.44,36.72,62.6a575.52,575.52,0,0,1-4.29,91.86c-1.55,12.24-2.07,27-7.39,38.42-7.8,16.82-29.77,24.34-39.37,39.89-2,3.19-6.09,8.13-6.29,11.94-.22,5.13,5.51,11.54,7.92,15.51,5.37,8.78,10.65,18.16,12.7,28.35,1.94,9.52-12.34,28.51-5.26,35.81,8.25,8.49,22.33,10,33.57,10.46a79.29,79.29,0,0,0,10,0c1.6-.11,5-2.13,4.79-.52-.36,2.72-6.12,5.8-8.2,7a89.75,89.75,0,0,1-9.71,4.72c-7.3,3.11-34.17,4.11-31.85,17.88,3.07,18,27.26,22.1,37.88,34.62,11,12.93,8.67,31.75,18.49,44.39,19.23,24.79,55.23,28.23,82.07,39,8.66,3.5,17.49,5.88,26,9.46,3.57-14.79.47-31.42-6.39-43.61-3.24-5.74-55.9-21.15-64.9-30.2-21.3-21.35-24.26-53.52-27.47-82.7-8.83-79.48,4.48-161.73,4.48-241.57,0-24.18,1.05-55-10-77.18-2.93-5.85-4.95-13.88-10.49-18C899.38,1782.37,884,1784.26,870.46,1792.08Z"/><path class="cls-23" d="M904.39,2168.21c-10.33,2.78-21.15,6.91-31.83,7.5-5.31.3-15.6-1-19.76,3.69-5,5.69.56,12.38,6.23,14.3,8.72,3,18.29,1,27.29,2.05,8.63,1,18.42,5.69,27.2,3.78,13.67-3,12.09-27.9,10-38.51"/><path class="cls-24" d="M943.65,2207.24c-7.47-3.47-21.31,7.44-28.33,10.14s-25.66,3.3-31.27,8.82c-6.48,6.36-2.8,12.36,4.92,14.69,6.67,2,13.81,1.94,20.51,3.86,9.38,2.69,18.81,8.85,28.72,4.16,11.12-5.27,13.26-24.09,16.24-34.89"/><path class="cls-25" d="M898.44,2100.56c-9.05-3.11-16.47-1-25.6.42-8.74,1.33-17.66.61-26.45.52-1.83,0-7.84-1.05-9.55,0-3.24,2.06,4.34,9.27,5.48,10.27,9.71,8.75,17.4,16.52,30.71,18.77,12.26,2.08,29.45-.58,35.89-13.3,2.8-5.5,2.11-12.38,4-18.26"/><path class="cls-26" d="M909.42,1988.19c-10.6,2.52-19.81,9.63-30,13.63-12.62,5-33-1.2-42.56,10-8.63,10.1,8.17,22.07,15.17,26.23,17.82,10.61,45.85,22.54,58.86-3.19,3.12-6.22,4.12-13.27,5.23-20.07"/><path class="cls-19" d="M939.11,1720.77c-6.42,7.27-11.62,16.88-13.47,18-8.53,5.13-18.68,7.71-27.51,12.63-32.18,18-70,36.5-96.08,62.71-10.12,10.13-32,22.9-35,37.89-5.79,28.9,9.21,59.88,9,89.36-.11,12.61,8.72,91.84,19.18,114.18,14.22,30.4,31.55,64,34.81,60.8,9.05-9.08,11.48-24.43,9.33-37.45-2.47-14.8-6.73-29.32-8.86-44.42-1.33-9.38.94-20.21,1.86-29.48,2-19.6,2.38-39.5,5.14-59,5.32-37.31-1.19-76.48,10.71-112.27a57.08,57.08,0,0,1,27.53-31.81c4.74-2.39,14.7-9.94,20.51-7,11.18,5.6,20.84,21.71,26.59,33.2,2.38,4.83,5.7,50.49,4.65,59-2.52,20.24-5.23,40.06-11.65,59.41a238.54,238.54,0,0,1-21,44.92c-2.93,4.94-7.81,7.6-9.77,13.57-7.53,22.57-9.93,43.83-.47,66,3.62,8.49,7,8.33,14.08,11.88,1.67.83,4.4,3.64,7,2.36,4.45-2.25,9.63-15.35,11.56-19.85,6.62-15.54,14.2-39.83,24.85-53.19,20-25.09,36.42-66,56.95-90.66,7.25-8.78,17.27-18.35,21.78-28.9,12.34-28.9,29.69-68.63,26.18-105.13,14.77-25,128.75-216.62,218.24-326.21,95.89-117.46,125.58-181.25,154.39-231.61s231.28-315.19,231.28-315.19,58.25-488.23-26.1-420.16S1480.9,624.84,1428.93,736.07s-108.42,229.75-123.5,266.81-38.16,83.37-42.69,93.39-88.08,105.27-157.68,249.79C1044,1473,963.77,1665.8,939.11,1720.77Z"/><path class="cls-27" d="M875.91,1801.83c-5.2,2.3-10.38,4.66-15.61,7-5.81,2.56-11.56,3.67-16.49,8C827.87,1831,812.46,1850,807,1871c-7.58,29.07-.17,62.91,3.24,92.08,2.27,19.46,0,39.89,4.07,59,4.37,20.37,13.47,39.31,17.15,60a207.09,207.09,0,0,1,2.69,24.76c0,.33-.17,1.81-.22,3.31a50.41,50.41,0,0,0,5.45-31.29c-2.47-14.8-6.73-29.32-8.86-44.42-1.33-9.38.94-20.21,1.86-29.48,2-19.6,2.38-39.5,5.14-59,5.32-37.31-1.19-76.48,10.71-112.27a57.08,57.08,0,0,1,27.53-31.81Z"/><path class="cls-20" d="M1601.55,979.4l-155.16,30.42c-10.7,14.24-56.28,66.38-58.13,82.7-2.11,18.52,32.87,52.94,20.72,67.1-18.68,21.73-49-3.64-68.35-7.78-16.71-3.55-32.21,12.5-41.89,23.68-67.91,78.62-92.15,193.22-134.13,286.24-34.28,76-69.57,153.38-112.46,224.92-9.18,15.32-19.53,35.73-32.62,48-7.89,7.44-26.18,8.83-30.14,19.88-6.25,17.52,14.64,68.18,6.78,103.88-4.56,20.76-22.36,31.78-29.8,50.8-15.91,40.67-22.22,80.84-45.11,119.18-6.89,11.54-26.06,35-25.79,52.85,1,.45,2,.92,3.21,1.5,1.67.83,4.4,3.64,7,2.36,4.45-2.25,9.63-15.35,11.56-19.85,6.62-15.54,14.2-39.83,24.85-53.19,20-25.09,36.42-66,56.95-90.66,7.25-8.78,17.27-18.35,21.78-28.9,12.34-28.9,29.69-68.63,26.18-105.13,14.77-25,128.75-216.62,218.24-326.21,95.89-117.46,125.58-181.25,154.39-231.61C1439.28,1195.29,1539.68,1061.21,1601.55,979.4Z"/><path class="cls-20" d="M1317.66,1102.07c19.13,5.55,37.69,12.16,55.65,21,11.29,5.52,22.06,13.8,31.08,22.54,10.13,9.83,23.38,22.15,27,36.39,2,7.72,3.19,19.63-9.07,14.52-10.66-4.47-15.17-19.29-23.47-26.81-17.18-15.61-38.1-28-58.86-38.2-10.24-5-22.08-7.61-32.87-11.25-3.21-1-9.82-2.49-10.29-6.69"/><path class="cls-10" d="M1301.42,1012.51c25.38-4.44,61.16-2,83.4,9.16,33.71,16.91,65.12,40,84,73.1,6.86,12.07,13.72,23.73,19.53,36.31,69-94.19,162.58-216.64,162.58-216.64s58.25-488.23-26.1-420.16S1480.9,624.84,1428.93,736.07s-108.42,229.75-123.5,266.81C1304.16,1006.05,1302.8,1009.27,1301.42,1012.51Z"/><path class="cls-28" d="M1653.66,497.39c-5.43,5.88-10,13-14.64,19.9-22,32.62-42.64,67-57.2,103.77-26.51,67-.89,154.66-34.4,223.45-34.7,71.23-82.9,133.22-126.54,198.73,19.23,13.86,36.06,30.71,47.93,51.53,6.86,12.07,13.72,23.73,19.53,36.31,69-94.19,162.58-216.64,162.58-216.64S1693.14,560.63,1653.66,497.39Z"/><path class="cls-29" d="M1642.34,2169.85l12-60.32,276.28,61.18,1.08,85.09-181.81-40.14a106.26,106.26,0,0,0-127,83.08c-14.47,72.24-31,154.66-31,154.66a45.63,45.63,0,0,0,6.47,33.86c16.88,26.38,29,70.49,30,120.76l-49.28-6.35s-13-67-39.41-88.78-69.23-26.15-96.08-6.42-53.76,85-53.76,85L1361.22,2577s24.55-73.23,69.32-105a117.42,117.42,0,0,1,36.55-17.55,29.08,29.08,0,0,0,21-23.34c12.84-71.82,48.34-250.21,52.1-267.53C1544.13,2145.42,1620.23,2164,1642.34,2169.85Z"/><path class="cls-30" d="M1372.73,2582.82a65.94,65.94,0,0,1,3.18-11.08c11.1-27.82,29.2-56.8,56-71.9,11.59-6.52,27.86-15.27,41.28-16.18,23.22-1.61,46.08,6.82,59.69,24.23-26.51-17.38-64.64-19.54-89.3-1.42-26.81,19.74-53.76,85-53.76,85Z"/><path class="cls-31" d="M1642.34,2169.85s-17.74,24.85-40.76,45.75c-12,10.91-27,20.29-35.17,34.81-23.52,41.84-37,90.58-49,136.75-3,11.52-6.81,22.93-10.6,34.2-1.25,3.72-3.1,11.58-8.61,11.58-4,0-7-3.56-9.08-8,13.65-75.37,47.35-244.54,51-261.39C1544.13,2145.42,1620.23,2164,1642.34,2169.85Z"/><path class="cls-32" d="M1592.94,2603.47c-5.2-43-32-133.67-32-133.67,47.76-251.45,70.31-280.3,93.53-285.54,19.28-4.36,212.18,36.89,276.88,51l.28,20.57-181.81-40.14a106.26,106.26,0,0,0-127,83.08c-14.47,72.24-31,154.66-31,154.66a45.63,45.63,0,0,0,6.47,33.86c16.88,26.38,29,70.49,30,120.76Z"/><path class="cls-33" d="M1682.63,2199.3c-41.34-9.85-52.58,36-58.14,68.71-.19,1,1.44-1.53,2.08-2.36.77-1,3-4.47,3.65-5.41,4-6,7.28-12.58,12.34-17.82,13-13.41,33.73-28.57,50.81-37"/><path class="cls-16" d="M1922.43,2248.47c.53,4.19-2,10.33-2.71,14.66-1.63,10.68-3.57,21.73-4.32,32.56-1.57,21.9.06,44.08,2.77,65.79,5.67,45.47,35.42,80.78,77.65,97.72,17.35,7,46.85,14.63,57.53-6.8,4.84-9.77,5.87-25.54,5.87-36.31,0-1.67,1.16-9.39,0-10.55-3.71-3.72-13.59-1.84-18.57-5.58-19.7-14.85-42.4-29-45.47-56.47-2.88-26.15,1.11-52.58,3.1-78.5.56-7.14,1.69-14.33,2.49-21.41.25-2.3,1.72-7.41.61-9.63-1.52-3-10.43-5.33-13.31-6.52-12.29-5.14-23.94-5.53-37.11-6.19-6.22-.31-12.48-.84-18.56.91"/><path class="cls-34" d="M1944.52,2220.93l-.83,15c.08,8.27-1.08,17.6,5,24.21,9.46,10.38,25.48,7.35,24.85,25.73a30.92,30.92,0,0,1-1.22,7.19c-3.49,12.55-10.87,13.27-23.3,14.21-6.92.53-19.87-2.58-15.5,10.17,4.65,13.65,21.59,7.55,30.64,12,7.77,3.8,9.29,17.29,10.71,24.79,1.16,6.19,3.23,16.1-2.55,20.85-7.25,6-35.59,5.8-28.28,23.12,1.22,2.86,4,4.11,6.7,5.25,12.7,5.44,20.94-1.17,32.4-6.05,3.4-1.47,9-4.94,12.62-2.25,11.65,8.63-2,16.52-2.13,25.09-.09,8.42,8.49,18.35,14.28,23.71,10,9.16,20.61,8.08,33.12,10,3.54.53,7.19,1.11,10.74,1.33a32,32,0,0,0,1.63-2.8c4.84-9.77,5.87-25.54,5.87-36.31,0-1.67,1.16-9.39,0-10.55-3.71-3.72-13.59-1.84-18.57-5.58-19.7-14.85-42.4-29-45.47-56.47-2.88-26.15,1.11-52.58,3.1-78.5.56-7.14,1.69-14.33,2.49-21.41.25-2.3,1.72-7.41.61-9.63-1.52-3-10.43-5.33-13.31-6.52-12.29-5.14-23.94-5.53-37.11-6.19C1948.8,2221.12,1946.67,2221,1944.52,2220.93Z"/><path class="cls-10" d="M2508.88,651.16c-35.5-47-202.06-307.9-869.11-166-16.39,3.48-28.7,82.95-31.55,99.5-10.9,66,5.78,207,32.51,287,46.71,139.91,120.21,177.11,130.64,198.12s3.43,66.16,2.33,86-19.35,57.52-19.35,57.52-139.13,74-221,239c0,0,243.4,16.22,275.7,145.08s10.9,154.13,10.9,154.13,168.66-117.87,198.38-138.5,53.27-39.48,53.27-39.48L2171.81,1555l109.83-160.26,90.05-305.48S2544.86,698.74,2508.88,651.16Z"/><path class="cls-28" d="M1957.16,444l-206.57,204.9c13.34,20.71,31.82,34.17,39.88,58.91,6,18.29-4.87,41.58,2.6,58,5.37,11.82,20.89,18.79,31.46,24.76a87.78,87.78,0,0,0,23.22,9.22c50.25,12,106.51-4.14,153.13-22.07,69.71-26.77,127-58.27,182.89-108.24,30.46-27.24,76.92-78.7,62.42-124.4-17.57-55.52-78.06-74-127.12-88.69-8.86-2.67-18-5.72-27.26-9.11A1151.47,1151.47,0,0,0,1957.16,444Z"/><path class="cls-28" d="M1687.44,972c30.42,47.95,60.8,72.13,75.71,87.45,19.76,8.41,41.48,13.52,67.3,16.88,34.65,4.49,70,.66,104.24,8.38,43,9.72,162,71.26,180,111.54,12,27,8.69,63.21,9.46,92,.56,20.49,9.25,49.83,1.47,69.57-9.63,24.4-53.38-3.94-64.75-11.85-42.31-29.32-84-57.55-123.89-90.31-12.89-10.63-37.88-36.39-57-34.39-21.22,2.22,9.58,40.53,13.73,45.77,36.67,46.14,72,83.92,94.44,139.22,6.78,16.71,21.12,58.22,18,58.47-6.89.55-85.65-79.23-98.21-91-45.55-42.7-97.9-63.91-147.55-98.5-10.7-7.47-46.68-18-51.16-31.26a4.1,4.1,0,0,1-.22-.77q-5.65,4.2-11.82,9c20.42,17.82,46.71,29.73,67.74,46,47.71,37,84.73,85.5,131.28,123.64,21.17,17.35,61.35,39.25,74.74,64,5.34,9.88-45.8,8.8-49,8.8-32,.08-75.94-7-102.53,15.38-12.87,10.82-23.41,26.34-32.26,43.17A119,119,0,0,1,1809,1597.4c32.26,128.89,10.9,154.13,10.9,154.13s168.66-117.87,198.38-138.5,53.27-39.48,53.27-39.48L2171.81,1555l123.34-147.66,76.54-318.08s29-65.54,60.9-146.19c-12.37-29.09-29.3-53.13-52.16-68.73l-47.29-4.08c-72.64,93-211.39,132.53-327.33,130.11-52.69-1.11-103.27-19.46-155.35-22.15-29.39-1.5-57.75,5-87,6.22C1736.75,985.53,1712.29,982.59,1687.44,972Z"/><path class="cls-35" d="M1822.26,1661.25a245.29,245.29,0,0,1,37.86-22.26c17.51-8,37.63-10.28,54.73-18.77,17.43-8.72,30.25-23.9,45.91-35.06,9.6-6.83,21.06-10.52,30-18.27,20.67-17.79,13.34-23.57,3.32-44.3a73.31,73.31,0,0,0-10-15.27c-1.63-2-7.58-6.28-5.06-5.78,18.51,3.7,31.35,18,52.36,18.44,3.45.08,17.87.94,19.53-3.36,15.08-39-23.88-84.42-44-113.29-1.71-2.47-25.59-36.79-22.19-40.59,3.15-3.52,10.27,2,12.59,4,13.75,11.66,24.49,26.62,38.05,38.53,26,22.79,80.3,51.69,116.75,44,28.33-6,86-20.32,111.85-35.73L2171.81,1555l-100.25,18.51S2048,1592.4,2018.29,1613s-198.38,138.5-198.38,138.5S1833.8,1735.12,1822.26,1661.25Z"/><path class="cls-35" d="M1819.16,1045.66c40.68,19.32,85.37,3,127.38,8.52,72.25,9.39,146.38,43,220.6,28.76,42.31-8.08,82.9-29.2,122.8-45,5.59-2.22,32.41-17,38.19-13.71,5,2.88,3.76,13.77,3.52,18.43-1,17.6-2.8,35.06-4.49,52.61-6.92,71.92-2.32,148.4-18.68,218.94-1.16,5-2.43,10-3.48,15-3.63,17-7.75,31.64-15.11,47.24-1.33,2.84-5.4,12.58-9.71,11.75-5.71-1.14-8.78-9.36-10.41-13.94-6.28-17.54-7.78-37-10.4-55.35-7.7-54.08-5.9-148.91-48.46-189.33-31.85-30.23-84.12-20.63-123.77-24.12-44.61-4-83.38-23.54-127.43-30-42.73-6.28-93.87,3.47-132-21.68"/><path class="cls-16" d="M2201.78,1540.32s-121,10.75-130,13.66-36.53,22-42.9,32.46,14.75,52.57,53.13,52.27a589.37,589.37,0,0,1,70.15,3.69Z"/><path class="cls-19" d="M2019.4,1853.74c-12,7.11-25,18-38.66,29.62-36.11,30.7-76.32,59.41-106.84,96.14-6.42,7.74-14.36,15.38-18.88,24.45-3.23,6.5-4.31,14.69-6.47,21.93-7.55,25.27-16.27,50.45-23.85,75.85-6.2,20.65-12.43,43-23.39,61.35-2.18,3.63-9.46,15.43-5.48,19.43,9.66,9.69,28.45,6.44,38.8-.5,22.08-14.77,36.11-43,47.24-65.35,5.12-10.3,36.52-21,43.25-7.47,6.33,12.72-3.38,30.1-10.44,41.89-15.33,25.65-42.64,40.67-57.16,69.85-6.56,13.16-10.88,23.65-14.45,37.89-.41,1.75-2.6,10.36-1,12,5.07,5.11,12.51-3.5,16.41-5.47,14.64-7.33,27.92-19.74,42.29-26.93,3-1.53,6.5,4.8,7.94,7,3,4.5,11.4,13.49,17.4,11.46,15.83-5.27,33-13,46.74-19.93.58-.3,4.12,3.64,5,4.47,3.82,3.86,12.45,15,18.38,13,15.19-5.08,31.18-16.76,44.77-24.95,17.82-10.72,35.83-23.49,50.2-37.9,3.65-3.66,11.4-8.82,12.92-13.49,8.47-25.45,9.27-55.94,11-82.78,1.41-22.71,6.39-45.19,8.44-67.85,2.9-31.92,10-64.35,16.21-95.24l.94.55s99.79-138.83,164.87-229.33,115.23-178.08,121.84-196.21,67.94-230.86,86.95-395.34,19.26-348.64,13.09-394.61-23.3-108.66-75.77-89.86c-61.27,21.93-140,115.95-158.23,206s-39,518.73-42.09,553.71-35.58,46.39-86.69,142.58C2114.86,1623.16,2074.21,1778.48,2019.4,1853.74Z"/><path class="cls-36" d="M2258.54,1265.58c50.39-49.94,109.85-87.34,182.41-98.91l19.89,104.18c-41.31-29.56-107.94,17.6-116.47,62-3,15.52-6.19,40.14-1.21,55.61,2.87,8.82,18.73,22.87,14.16,32.48-7.88,16.68-44.71,14.35-60.38,19-19.53,5.75-31.35,28.43-40.51,45-34.67,62.85-60,130.78-94.58,193.35-20.75,37.54-46,72-67.63,109-10.32,17.66-23.8,35.51-31.46,54.52-3,7.5.22,22.3-5,28.15-10,11.11-38.77,10.25-52.82,16.66-30.08,13.69-55.43,41.22-81,61.77-20.09,16.15-40.32,32.73-59.83,49.52-.52.45-5,4-9.68,7.3.19-.41.38-.83.6-1.25,4.52-9.07,12.46-16.71,18.88-24.45,30.52-36.73,70.73-65.44,106.84-96.14,13.64-11.57,26.65-22.51,38.66-29.62,54.81-75.26,95.46-230.58,145.22-324.13,51.11-96.19,83.57-107.57,86.69-142.58C2252.25,1376.34,2254.86,1328.87,2258.54,1265.58Z"/><path class="cls-10" d="M2256.88,1294.39c6.8-3.52,12.42-6.21,14.72-7.3,69.31-32.45,143-15.29,209,15.58,13.76-62,26.68-129.76,33.74-190.86,19-164.51,19.26-348.64,13.09-394.61s-23.3-108.66-75.77-89.86c-61.27,21.93-140,115.95-158.23,206C2279.87,900.22,2264.93,1153.93,2256.88,1294.39Z"/><path class="cls-18" d="M2322.24,1271.8a182.93,182.93,0,0,0-50.64,15.29c-2.3,1.09-7.92,3.78-14.72,7.3,8-140.46,23-394.17,36.52-461.07,18.24-90,97-184.05,158.23-206,8.08-2.92,15.33-3.86,21.83-3.25-40.23,19.93-84.42,59-98.65,100.69-13.36,39.17-12.78,83.36-17.18,124.14-4.9,45.47-11.07,90.75-14.86,136.39-2.41,29.23-6.12,58.27-10.77,87.17-2,12.74-8.13,32.09-4.75,44.66C2341,1168.31,2330.59,1220.13,2322.24,1271.8Z"/><path class="cls-37" d="M1798.24,2184.54c10.1,7.13,26.84,3.88,36.39-2.53,22.08-14.77,36.11-43,47.24-65.35,5.12-10.3,36.52-21,43.25-7.47,6.33,12.72-3.38,30.1-10.44,41.89-15.33,25.65-42.64,40.67-57.16,69.85-6.56,13.16-10.88,23.65-14.45,37.89-.41,1.75-2.6,10.36-1,12,5.07,5.11,12.51-3.5,16.41-5.47,14.64-7.33,27.92-19.74,42.29-26.93,3-1.53,6.5,4.8,7.94,7,3,4.5,11.4,13.49,17.4,11.46,15.83-5.27,33-13,46.74-19.93.58-.3,4.12,3.64,5,4.47,3.82,3.86,12.45,15,18.38,13,15.19-5.08,31.18-16.76,44.77-24.95,17.82-10.72,35.83-23.49,50.2-37.9,3.65-3.66,11.4-8.82,12.92-13.49l.05-.14c-4.7-4-8.71-8.52-9.49-10.82-5-15-.55-30.26-9.93-44.39-5.92-8.89-18.93-10-21.89-21.93-2.41-9.72-3.38-34.87-13.42-39.92-11.73-5.89-29.61-2.58-42.75-7-3.74-1.25-6-8.52-8-11.49-6-9-10.24-22.38-19.37-28.93-8.47-6.05-22.36-7.47-32.32-7.47-1.25,0-7.92.28-11,.42v0c-2.3.11-1.75.08,0,0l-3-7.41c-10.85,3.63-19.87-9.28-31.33-7-3.37.66-7.11,4.61-9.46,7-14.45,14.49-18.18,41.92-24.85,60.35-13,35.81-30.33,69.51-48.73,102.77-3.29,6-7.86,15.27-13.42,19.43A21,21,0,0,1,1798.24,2184.54Z"/><path class="cls-38" d="M1970,2238.31c17-13.91,34-27.74,52.11-39.84,7.3-4.88,14.08-11.57,21.36-16.46,1.22-.81,8.72-9.22,9-9,1,1-3.46,9.05-4,10-6.11,10.74-14.94,18.18-22.85,27.43-12.12,14.18-29.81,22.73-42.78,36.25-2-2.05-3.74-4.08-5-5.33-.86-.83-4.4-4.77-5-4.47Zm-73.19,2.22c.22-.31.42-.53.5-.64,3-3.78,5.87-7.27,9.93-10,12-8,21.7-21.6,32.82-30.93,24-20,44.8-44.58,64.15-68.82,6.78-8.52,12.09-19.12,19.89-27,.89-.89,6.26-8.19,7-7.47,1.41,1.39-2.91,8.05-3.49,9.47-4.4,11.1-13.39,20.4-19.37,30.92-11.82,20.74-28.89,42.53-47.24,57.85-12.75,10.66-30.19,23-39.79,36.43a135.21,135.21,0,0,1-12.48,14.88c-1.46-2.25-4.92-8.39-7.88-6.89C1899.41,2239.06,1898.08,2239.78,1896.78,2240.53Z"/><path class="cls-16" d="M1894.37,2170.74c-8.35-19.91-18.76-39.73-16-50.83s12.95-38.89,9.85-50-1.19-73.62,8.3-90.7c12.7-22.84,45.58-37.89,58.33-31.45s14.89,92.94,14.75,114.26C1969.36,2100.5,1902.73,2190.62,1894.37,2170.74Z"/><path class="cls-39" d="M1920.58,1955.32c13-7.91,27-11.3,34.28-7.61,12.76,6.41,14.89,92.94,14.75,114.26-.19,27.79-34.84,82.34-57.3,103.19-3-6.75.44-13.94,4-22.63,1.52-3.74,4.65-8.77,2.91-12.88-.92-2.11-8,.28-9.52.36-6.7.39-24.94-5.52-20.62-15.85,2.13-5,13.59-2.41,17.74-3,10.43-1.47,29.28-1.88,35.31-12.49,1.88-3.3,1.55-8.41,2.05-12a26.61,26.61,0,0,0-.39-9.58c-4.68-20.46-23.19-3.19-37.39-8.83-2.68-1.08-8.66-3.38-9.65-6.85-.28-1,2-.45,3-.84,1.68-.66,3.15-1.72,4.76-2.52,6.28-3.06,19.56-6.64,23.68-12.69,4.76-6.94,1-19.21.22-26.79-1.07-9.69-2.15-19.24-2.43-29C1925.59,1978,1927.75,1964.34,1920.58,1955.32Z"/><path class="cls-40" d="M1318.16,2568.52s38.88-76,87.11-100.36c55.15-27.84,101.2-22.87,127.35-7.21s72.67,49,67,165.2l-46.66-10.33s12.07-120.42-82.79-129.06c-68.71-6.24-130.86,94.25-130.86,94.25Z"/><path class="cls-41" d="M1482.7,2448.23a41.66,41.66,0,0,1-17.71,19.55c-10.13,5.27-24.9-2.45-35.5,2.38-6.76,3.06-3.3,15-10.21,19-2.88,1.61-8.83-.58-11.82-.86-5.23-.44-9.82,1.22-14.33,3.78-12.57,7.11-22,19.1-31.19,30-13.75,16.27-27.67,31.62-39.82,48.83l-3.63-2.14v-.89c4-7.49,41.21-76.67,86.78-99.69C1434.08,2453.62,1460.4,2448,1482.7,2448.23Z"/><path class="cls-42" d="M1430,2457.56c44.11-15.46,80.5-9.88,102.61,3.39,26.12,15.65,72.67,49,67,165.2l-8.69-1.92c4.2-112.29-41.43-145-67.19-160.42C1503.12,2451.45,1470.11,2445.76,1430,2457.56Zm5.32,34.48c-53.55,20.26-96,89-96,89l-5-3C1346.61,2559.83,1387.37,2504.84,1435.33,2492Z"/><path class="cls-43" d="M1486.13,2453.73s-74.66-88.28-81-93.58-14.86,7.13-14.86,7.13l63.09,100.47Z"/><path class="cls-44" d="M1510.12,2057.89,1398.77,2371a1.89,1.89,0,0,0,1.11,2.42,1.91,1.91,0,0,0,2.41-1.14l111.35-313.17a1.89,1.89,0,0,0-1.14-2.39A1.85,1.85,0,0,0,1510.12,2057.89Z"/><ellipse class="cls-45" cx="1403.29" cy="2365.79" rx="7.64" ry="8.92"/><ellipse class="cls-45" cx="1472.26" cy="2463.92" rx="18.68" ry="27.32"/><ellipse class="cls-46" cx="1463.76" cy="2462.38" rx="16.97" ry="25.27"/><path class="cls-47" d="M1455.19,2484.21c-5-4.39-8.41-12.52-8.41-21.85,0-13.93,7.61-25.26,17-25.26,5.15,0,9.74,3.42,12.87,8.8a30.89,30.89,0,0,1-7.11,11.33c-4.43,4.44-11.43-1.17-14.78,4.36C1451,2467.72,1453.09,2477.08,1455.19,2484.21Z"/><path class="cls-48" d="M1620.51,2065c2.6,0,21.75,3.08,25.84,4.25s-.3,18.18-.3,18.18l-26.29-7S1617.88,2065,1620.51,2065Z"/><path class="cls-16" d="M1582.54,2194.45s59,6.52,70.34-27,8.41-74.12,6.56-78.72S1631.93,2077,1604.9,2077Z"/><path class="cls-48" d="M1465.1,2019.8s-2.08,16.24,7.17,19.55,46.1,21.4,47.34,26.18,19.4,101,21.75,114.15,46.27,28.06,66,9.91,18.46-73.68,17.65-81.9l-25.62-99.46-57-13.47Z"/><path class="cls-49" d="M1466.51,2033.38c.69.44,1.36.86,2,1.25,20.64,11.74,42.14,9,64.7,9.91,11.56.44,23.71-5.11,34.45-8.94,1.6-.58,10.1-4.52,11.2-1.36,1.5,4.3-4.48,8.22-7.27,10.3-4.62,3.47-10.44,7.36-16,9s-17.32,0-18.09,8.14c-1.14,12.07,17.73,22,21,33.61,8.71,31,4.59,64.49,7.88,96.22.17,1.5.36,3,.64,4.67,13.92,3.3,30.25,2.63,40.32-6.61,19.78-18.16,18.46-73.68,17.65-81.9l-25.62-99.46-57-13.47-77.37,25S1464.13,2027.49,1466.51,2033.38Z"/><path class="cls-50" d="M1593.44,2046.09c-10.62,7.31-18.73,18.94-31.76,22.18-5.29,1.31-11.41,3.7-16.91,3.7-4.1,0-11.65-2.78-14.83,1.47-2.85,3.8.55,8.71,3.57,11.16,6.17,5,16.54,8.69,24.54,9,22.19.94,33.51-25.43,35.92-44"/><path class="cls-48" d="M1463.16,1924.78c-9.68,13.1-20.06,38.75-20.25,53.38s-7,29,10.49,37.51,81.38,13.77,91.59,2.08,17.93-55.8,17.93-55.8l23.85,4.86s1.3-16.63-.8-22.26-29.72-7.5-29.72-7.5,0-8.61-42.25-13.1C1488.84,1921.28,1468.53,1917.51,1463.16,1924.78Z"/><path class="cls-51" d="M1555.92,1936.58a18.75,18.75,0,0,1-2.13,2.64c-4.29,4.3-5.18,15.68-7.31,21.43-2,5.24-2.63,11-4.23,16.38-3.35,11.16-7.33,22.79-9,34.39-.56,3.83-2.19,7.5-2.8,11.3,0,.17-.11.36-.16.61,7-1.06,12.28-2.86,14.69-5.58,10.21-11.69,17.93-55.8,17.93-55.8l23.85,4.86s1.3-16.63-.8-22.26-29.72-7.5-29.72-7.5S1556.14,1936.88,1555.92,1936.58Z"/><path class="cls-52" d="M1459.51,1996c-2-4.22,9-14,12.18-15.35,10.37-4.47,23.68,1,29.52,10.72.61,1,6,10.63,4.79,11.85-1.66,1.64-6.56,1.39-8.72,1.39-7.94,0-17.24-.59-24.76-3.08-3.21-1.09-7-1-9-4"/><path class="cls-16" d="M1868.53,1985.71,1564.14,1949s-19,38.64-17,64.76l290.78,46.06c3.65-11.3,7.27-22.6,10.65-33.93,2.16-7.24,3.24-15.43,6.47-21.93C1858.32,1997.29,1863.49,1991.43,1868.53,1985.71Z"/><path class="cls-53" d="M1560,1958.29c-5.45,13.07-14.25,37.28-12.84,55.46l290.78,46.06q3.31-10.24,6.55-20.52c-1.88-.19-3.73-.39-5.59-.55-27.94-2.64-55.75-6.75-83.4-11.47-43.06-7.33-86-10.41-128.45-21.15-16.63-4.22-35-8.8-50.56-16.13-6-2.83-12.87-5.8-15.88-12.19C1557.83,1972,1558.3,1965,1560,1958.29Z"/><path class="cls-54" d="M2152.44,299.7c-3.43,5.13,1,16.18,1.41,21.37.9,10.73-1.56,23.17-3,33.69-5.73,40.49-26.51,88.34-52.56,120.26-14.61,17.92-31.3,33.25-49.55,47.24-5.41,4.13-12.23,7-17.07,11.45-1.87,1.72-3.34,3.61-5.21,5.34-.76.7-1.86,3.07-2.28,2.1-1.88-4.16-.09-11.65.1-16,.61-14.89,2-30,1.84-44.83-.53-45.39,8.11-85.34,27.87-126.31,15.11-31.28,37.58-58.46,74.47-60.57"/><path class="cls-19" d="M2078,493.65C2077.66,504,2077,514,2076,523.57c-11.6,111.21-114.29,191.07-154.61,219.2-23.63,16.48-73.89,17.18-96-7.56-18.63-20.85-50.5-45.39-65.28-69.41-19.72-32.14-44.38-79.35-52.58-116.3-7.36-33.08-14.79-83-26-114.55-3-8.54,3.09-92.84,4.82-100.45l145.54,20.11c51.54-18.35,105-21.16,158-32.23,12.69-2.66,58.13-4,69.42,6.85,7.19,6.93,10.14,24.32,11.74,36.46,13.77-27.22,33-65.5,54.88-26.18,20.2,36.31,5.86,91.2-16.26,122.18-6.49,9.09-13.37,23.87-24,27C2083.17,489.46,2080.48,494.85,2078,493.65Z"/><path class="cls-20" d="M2117.14,327.54a49.07,49.07,0,0,1,8.8,12c20.17,36.32,5.84,91.2-16.27,122.18-6.5,9.1-13.37,23.87-24,27-2.51.75-5.2,6.13-7.63,4.94C2077.68,504,2077,514,2076,523.56c-11.59,111.2-114.29,191.07-154.6,219.19-11.32,7.89-28.75,12.16-46.27,11.77-6.48-5.52-4.84-14.63,2-19.93s14.83-8.13,22.44-12.35c18.6-10.33,38.74-25.13,49-44.2,12.23-22.65,22.19-51.19,18.15-77.31-1.44-9.27-7.17-17.32-10.21-26.09a101.16,101.16,0,0,1-4.4-45.67c3.21-24.07,27.06-49.66,17.74-75-9.63-26.12-46.94-10.11-65.7-7.83-13.56,1.67-26.62,5.47-40.12,7.38-15.28,2.14-30.86,2.09-46.19,4-28.22,3.53-62.84,6.66-88.41-9.52l64-43.17c23.28-28.56,54.35-47.53,87.12-63.57l.27-.14c36-7.49,72.59-11.21,109-18.79,12.7-2.67,58.14-4,69.43,6.85,7.19,6.92,10.12,24.32,11.73,36.45l.28-.52c-.12,11.27,2.82,23.76,4.73,33.81,2.21,11.57,3.26,23.76,8.27,34.56,1.61,3.5,3.85,8.36,7.72,9.69s8-4.53,9.88-7.08c6.45-8.94,14.28-22.46,10.13-33.76-6.37-17.29-25.88,8.61-27.76-8.16-.83-7.25,1.5-15.18,2.83-22.24,3.57-18.57,6.91-38.19,27.58-44A15.2,15.2,0,0,1,2117.14,327.54Z"/><path class="cls-20" d="M1777.93,574.59c14.25,9.91,26.27,12,42.61,6,5.88-2.16,11.48-4.85,17.54-6.74.89-.28,5.46-1.69,6-.79,2.22,3.83-4.78,14.18-6.49,17.45-4,7.71-3,16.82-11.47,20.82-2.47,1.17-10.06-2.81-12.52-3.58-3-.92-5.11-2.32-7.82-3.75-7.92-4.14-25.65-9.94-25.3-20.4"/><path class="cls-55" d="M1883.6-8c-85.56,14.27-174.15,73.89-195,105.79s-62.1,169.22-61.5,217.84,6,73.52,13.73,78.08,90.35,92.94,216.11,61.44,154.94-45.35,176.56-57.58,49.95-69.4,76.68-74.52,25.73,16.9,32.81,14.56,13-7.2,14.53-16.74-.66-146.82-26.05-199.43S1984.8-24.88,1883.6-8Z"/><path class="cls-56" d="M2001.7,12.53c23.34,9.7,84.1,61.21,78.22,68-20,23.19-93,106.91-125.58,127.09-43.22,26.77-108.3,49.19-91.84,96.38,6.33,18.13,29.64,51.46,19,71.65-7.17,13.56-32.14,15.91-43.8,22.22-42.24,22.87-95.72,19.19-141,6.94-23.66-6.4-37.35-13.78-55.58-30.43-.44-.41-2.59-2.4-5.09-4.89a72.13,72.13,0,0,0-6.63-11.06c.17,1.59.36,3.14.56,4.61,1.8,2.12,4,4.46,6.07,6.45,3.09,6,5.83,12.11,6.31,13.09,3.55,7.24,7.07,14.57,11,21.57,28.59,23.66,102,76.4,203.56,51,125.77-31.5,154.94-45.35,176.56-57.58s49.95-69.4,76.68-74.52,25.73,16.9,32.81,14.56,13-7.2,14.53-16.74-.66-146.82-26.05-199.43C2115.72,88.91,2063.33,40.62,2001.7,12.53Z"/><path class="cls-57" d="M2135.56,279.66c-21-10.67-54.23-9.32-70,12.16-7.65,10.42-14,23.11-20.91,34.27-6,9.68-13.44,18.37-18.76,28.45-3.47,6.6-15.66,7.53-21.53,10.73-.72.37-6.37,2.35-6.18,3.64.51,3.36,12.51,2.63,14.45,2.42,11.52-1.31,26.75.19,33.7-12.35,10.2-18.4,15.49-38.4,32.53-52,9-7.18,18.09-10.16,28.91-11.92,11.21-1.83,28.16,4.53,27.95-12.67"/><path class="cls-58" d="M2014.24,78.87c-29.18,16.53-56.89,35.92-86.47,51.92-12.86,7-25.71,13.28-38.12,21.2-7.29,4.66-13.73,8.79-17.81,16.94-9.74,19.49-4.95,41.64-3.08,62.27,3.85,42.18,23.85,79.15,40.2,116.84,5.18,11.93,9.31,24.39,14.32,36.3,2,4.76,3.2,9.84,5.06,14.67.44,1.16,1,4.11,1.84,3.22,1.65-1.78,1-10.11,1.33-12.51,1.65-12,3.3-24,3.92-36.08,1.35-26.2-9.26-51.34-14.38-76.68-4.94-24.38-2.59-52.78,9.5-74.16,15.16-26.83,39.54-43.46,62-62.73,15.91-13.68,28.89-30.17,42.81-45.9,2-2.24,4-4.18,5.84-6.53,1.67-2.14,3-4.34,4.49-6.64,3.47-5.48,15.14-25.25,2.62-29.47"/><path class="cls-59" d="M1910.1,8.69c-60.59-3.75-127.91,24-141.38,32.28-65.78,40.42-68.85,43.71-82.77,119-3.3,17.88-7.85,35.54-9.22,53.71-.6,8-8.79,56.91-2.82,61.59,5.16,4.05,19.78-15,22.19-17.45,22-22.1,41.3-46,66.59-64.62,19-14.06,39.73-28.09,56.14-45.31,11-11.57,19.71-25.38,32.84-34.82,28.92-20.8,67.95-19,94.7-43.85C1990.75,27.94,1983.51,13.25,1910.1,8.69Z"/><path class="cls-60" d="M2026.73,264.3c12.78-4,9.06-19.23,7.51-24.06-3.68-11.43-11.64-22.62-21-31.32-5-4.62-15-12.43-20.7-6.73-13.72,13.66,3.47,40,12.08,52.19C2008,259.23,2021.27,266,2026.73,264.3Zm34.52-45.49c-7.65-16.58-10.13-35.41-6-51.57a36.1,36.1,0,0,1,7.64-14.86c1.16-1.31,4.06-3.58,6.38-2.58,3.47,1.51,6,7,7.39,10.08,8.11,17.67,4.06,33.64.48,50.39-1.14,5.33-3.33,11-8,13.32C2064.82,225.62,2062.66,220.81,2061.25,218.81Zm45.47,16.2c.11-4.18,3.36-13.17,5.61-19.73a65.92,65.92,0,0,1,6.08-13c2.32-3.81,5.34-8.23,9.66-10.25,1.6-.75,5.1-.8,6,1.35,1.5,3.36.06,8.12-.82,11.15-2.71,9.27-11.14,28.33-21.58,35.9C2107.71,243.3,2106.67,237.22,2106.72,235Z"/><path class="cls-55" d="M1992.11,202.59c5.55-.28,12.38,5.18,16.2,8.74,9.38,8.7,17.35,19.89,21,31.32,1.35,4.14,4.28,16-3,21.75.16,0,.3-.07.44-.1,12.78-4,9.06-19.23,7.51-24.06-3.68-11.43-11.64-22.62-21-31.32-5-4.62-15-12.43-20.7-6.73C1992.37,202.33,1992.25,202.47,1992.11,202.59ZM2063.28,152c1.35-1.32,3.88-3.08,6-2.17,3.47,1.51,6,7,7.39,10.08,8.11,17.67,4.06,33.64.48,50.39-1.14,5.33-3.33,11-8,13.32a4.42,4.42,0,0,1-2.18.47c2.91-2.8,4.44-7.2,5.33-11.37,3.58-16.75,7.62-32.74-.49-50.4-1.41-3.06-3.92-8.57-7.39-10.08A2.6,2.6,0,0,0,2063.28,152ZM2125,194a14.48,14.48,0,0,1,3.06-2c1.6-.75,5.1-.8,6,1.35,1.5,3.36.06,8.12-.82,11.15-2.71,9.27-11.14,28.33-21.58,35.9a2.67,2.67,0,0,1-2.7.62c9.4-8.47,16.85-25.49,19.37-34.11.88-3,2.32-7.79.82-11.15C2128.55,194.24,2126.64,193.82,2125,194Z"/><path class="cls-61" d="M1613.87,528.54c.24-.58,1.48-2.68,1-3.61-5-9.08-31.38,27.16-35.78,31.67-21,21.51-43.77,40.47-62.35,64.36-34.93,44.92-76,90.32-100.16,142.39-16.33,35.13-24.34,73.72-37,110.24-2.87,8.3-30.54,79-23.81,84.07,10.7,8,56-74.51,69-93.69,21.08-31.21,40.64-63.66,63.22-93.82,18.68-25,41.21-51.2,54.29-79.89,8.86-19.43,14.06-40.26,23-59.71,7.39-16,18.91-29.65,27.27-45.18C1600.71,570.23,1602,541.41,1613.87,528.54Z"/><path class="cls-62" d="M1648.67,505.22c-5.38,1.64-7.51,14.16-8.61,18.83-4.22,18-6.2,36.39-9.61,54.53a386.66,386.66,0,0,0-6.26,47.23c-1.42,22.39,7.83,33.54,14.65,54.05,12.91,38.91,27.45,86.78,80,76.57,36.16-7,15.81-38.28,12.48-67.09-5.42-46.93-16.63-95.7-36.12-139-10.81-24-13.22-47.47-45.89-47.69"/><path class="cls-63" d="M2288.13,507.09c2.41,19.88,14.47,38.39,9.3,58.78-5.63,22.15-40.81,48.93-29.14,74.92,10.79,24,121.93,46.9,131.37,15.81,10.1-33.3-4.7-93.87-32.51-115.69-13.29-10.44-32.35-18.49-43-31.82"/><path class="cls-64" d="M2484.93,682.41c-16.54-5.4-65.19,46.78-69.85,61.41-3.43,10.75-3.49,22.83-4.07,34-2.29,44.33,17.47,84.71,23.62,128,8.44,59.33,8.46,116.63,21.84,175.45,6.08,26.72,7.28,74.44,36,87.2,7.71,3.43,8.2-31.09,8.38-34.32,2.52-46.13,11.91-91.63,14.46-137.9,4.51-81.87-5.74-164.33-5.48-246,.07-22.36,9-64.44-15.67-78.36"/></g><path class="cls-65" d="M4279.92,270.63a38.55,38.55,0,0,0-38.48-38.6H2856.82a38.55,38.55,0,0,0-38.48,38.6v1143.6a38.56,38.56,0,0,0,38.48,38.6H4241.44a38.56,38.56,0,0,0,38.48-38.6Z"/><path class="cls-29" d="M4227,1141.8a19.13,19.13,0,0,0-19.09-19.15H3317a19.13,19.13,0,0,0-19.09,19.15v152.69a19.13,19.13,0,0,0,19.09,19.15h891a19.13,19.13,0,0,0,19.09-19.15Z"/><path class="cls-7" d="M3456,1201v-12.39a81.17,81.17,0,0,0,12-1.15,16.93,16.93,0,0,0,8.91-4.86,16,16,0,0,0,3.57-6.64,15.6,15.6,0,0,0,.7-3.7h15.09v92.62h-18.6V1201Z"/><path class="cls-7" d="M3527.87,1246.68q3.87-9.26,18.33-19.61,12.54-9,16.24-12.9,5.67-6.08,5.66-13.29a14.78,14.78,0,0,0-3.24-9.77q-3.26-3.9-9.3-3.9-8.26,0-11.27,6.2-1.73,3.57-2,11.37h-17.64q.43-11.82,4.26-19.1,7.26-13.86,25.79-13.86,14.65,0,23.31,8.14t8.65,21.56a29.2,29.2,0,0,1-6.11,18.27q-4,5.31-13.18,11.82l-7.26,5.17q-6.81,4.86-9.33,7a20.92,20.92,0,0,0-4.23,5h40.31v16H3523.6A43.58,43.58,0,0,1,3527.87,1246.68Z"/><path class="cls-7" d="M3626.75,1171.5q21.08,0,28.91,18.72,4.46,10.59,4.45,27.91,0,16.8-4.26,28-8.16,21.4-29.93,21.4a30.41,30.41,0,0,1-18.65-6.16q-8.28-6.17-9.49-18h18.08a11,11,0,0,0,3.44,6.65,10.63,10.63,0,0,0,7.45,2.55q9,0,12.61-10,2-5.49,2.48-16a19.85,19.85,0,0,1-5.29,4.79,23.93,23.93,0,0,1-12.54,3.06,28.48,28.48,0,0,1-19.55-7.63q-8.53-7.63-8.53-22,0-14.88,8.56-24.11T3626.75,1171.5Zm8.27,46q6.2-4,6.18-13.73,0-7.86-3.66-12.46a12.13,12.13,0,0,0-10-4.6,12.5,12.5,0,0,0-8,2.62q-5.22,4.1-5.22,13.86,0,8.25,3.35,12.36t10.28,4.12A12.61,12.61,0,0,0,3635,1217.49Z"/><path class="cls-7" d="M3673.61,1201v-12.39a80.84,80.84,0,0,0,12-1.15,16.93,16.93,0,0,0,8.92-4.86,15.9,15.9,0,0,0,3.56-6.64,15.23,15.23,0,0,0,.71-3.7h15.09v92.62h-18.6V1201Z"/><path class="cls-7" d="M3787,1220.24a16.22,16.22,0,0,0-2.61-7c-2-2.81-5.2-4.21-9.48-4.21q-9.18,0-12.55,9.13-1.78,4.86-1.78,12.9a35.21,35.21,0,0,0,1.78,12.33q3.24,8.69,12.23,8.69,6.36,0,9-3.45a17.21,17.21,0,0,0,3.24-8.94h18.53a30.52,30.52,0,0,1-6,15.71q-8.54,11.94-25.28,11.94t-24.64-10q-7.91-10-7.9-25.87,0-18,8.72-27.91t24.07-10q13.07,0,21.37,5.88t9.84,20.76Z"/><path class="cls-7" d="M3856.35,1231a19.54,19.54,0,0,1-3.47,1.76,29,29,0,0,1-4.81,1.25l-4.07.76q-5.73,1-8.21,2.49a8.35,8.35,0,0,0-4.21,7.73q0,4.67,2.58,6.74a9.71,9.71,0,0,0,6.27,2.08,18.44,18.44,0,0,0,10.79-3.45c3.29-2.3,5-6.5,5.13-12.59Zm-11-8.49a28.3,28.3,0,0,0,7.19-1.6q3.88-1.67,3.88-5.17c0-2.86-1-4.83-3-5.91s-4.87-1.63-8.69-1.63q-6.42,0-9.1,3.19a13.43,13.43,0,0,0-2.55,6.39H3815.6q.57-9.13,5.09-15,7.2-9.19,24.71-9.2a43.63,43.63,0,0,1,20.24,4.54q8.87,4.53,8.85,17.12v31.93c0,2.22.05,4.9.13,8,.13,2.39.49,4,1.09,4.86a6.43,6.43,0,0,0,2.67,2.1v2.69h-19.74a20.44,20.44,0,0,1-1.14-4c-.21-1.24-.39-2.64-.51-4.22a37.31,37.31,0,0,1-8.66,7,26,26,0,0,1-13.25,3.39q-9.42,0-15.56-5.4t-6.15-15.3q0-12.84,9.87-18.58,5.41-3.13,15.92-4.48Z"/><rect class="cls-7" x="3890.99" y="1170.73" width="18.15" height="94.15"/><path class="cls-66" d="M3985.39,1226.29c-.87-27,23-48.66,23-48.66-6.9,21.79,7.77,33.56,7.77,33.56-10.1-40.66,33-71.1,33-71.1s-10.48,25.37,12.66,42.72c14.29,10.72,24.77,24.63,24.44,45.09-.49,29.4-26,50.16-55,46.25a53.22,53.22,0,0,1-45.79-47.66Zm26.49,24.66c6.72-4,30.17-12,33.66-21.74,0,0,3.91,4.39-4.78,20.21,0,0,32.1-9.48,28-44.41,0,0,9.82,19.11,3,35.56-4.19,10.06-20,22.28-37.51,19.93C4029.23,1259.83,4016.49,1256.64,4011.88,1251Zm-21.69-8.1,0,.08-.08-.17Zm-.15-.29.05.1-.09-.18Zm-.95-2.11c0,.13.11.27.17.4s.11.25.17.39C3989.31,1241,3989.2,1240.72,3989.09,1240.45Zm-1.06-2.7c.09.28.2.57.31.85l.33.86C3988.44,1238.89,3988.23,1238.32,3988,1237.75Zm-1.5-4.94q.22,1,.51,1.92c.19.63.39,1.27.6,1.91C3987.21,1235.36,3986.84,1234.09,3986.53,1232.81Zm-.47-2.08.15.74c.06.25.12.5.17.75C3986.27,1231.72,3986.16,1231.22,3986.06,1230.73Zm-.32-1.81.12.76.15.77Q3985.86,1229.69,3985.74,1228.92Zm-.16-1c0,.15.05.31.07.46s0,.31.07.46C3985.67,1228.52,3985.63,1228.21,3985.58,1227.9Zm-.15-1.27c0,.16,0,.32.05.48s0,.32.07.47C3985.5,1227.27,3985.46,1227,3985.43,1226.63Zm-.25-3.72a1.27,1.27,0,0,0,0,.2,1.48,1.48,0,0,0,0,.21C3985.19,1223.18,3985.18,1223.05,3985.18,1222.91Zm0-3.81c0,.22,0,.43,0,.64s0,.42,0,.63C3985.17,1220,3985.19,1219.53,3985.2,1219.1Zm.08-1.35a.37.37,0,0,1,0,.11c0,.05,0,.09,0,.12A1.64,1.64,0,0,0,3985.28,1217.75Zm.27-2.8c-.06.43-.1.85-.15,1.28s-.07.84-.1,1.27C3985.36,1216.65,3985.44,1215.8,3985.55,1215Zm.21-1.54-.06.35c0,.11,0,.23,0,.34C3985.68,1213.87,3985.72,1213.64,3985.76,1213.41Zm.62-2.81,0,.1,0,.06,0,.11,0,.06,0,.1v.06l0,.11,0,0,0,.11v.06l0,.1,0,.06,0,.11v0l0,.11v.06l0,.1v.06l0,.1v.06l0,.1v.06l0,.1v.07l0,.09,0,.08v.08l0,.09v.07l0,.15,0-.14v-.16h0v-.07l0-.07h0v-.36l0-.06V1212l0,0v-.17l0,0v0l0-.07v-.17l0,0v-.06l0-.07v0h0v0l0-.08v0h0v0l0-.08v-.08l0-.09v0l0-.06,0-.09h0s0-.1,0-.16Zm.39-1.29c-.05.14-.09.28-.14.43l-.12.42C3986.59,1209.88,3986.68,1209.59,3986.77,1209.31Z"/><ellipse class="cls-67" cx="3086.91" cy="1204.89" rx="152.25" ry="152.73"/><path class="cls-68" d="M3171.35,1189.8a15.68,15.68,0,0,1,0,28l-120,60.2a15.61,15.61,0,0,1-22.61-14V1143.6a15.62,15.62,0,0,1,22.61-14Z"/><path class="cls-69" d="M4231,394.56a32.48,32.48,0,0,0-32.42-32.5H2919.88a32.47,32.47,0,0,0-32.41,32.5v100a32.48,32.48,0,0,0,32.41,32.51H4198.57A32.48,32.48,0,0,0,4231,494.58Z"/><path class="cls-69" d="M4231,880.3a32.48,32.48,0,0,0-32.42-32.51H2919.88a32.48,32.48,0,0,0-32.41,32.51v100a32.48,32.48,0,0,0,32.41,32.51H4198.57A32.48,32.48,0,0,0,4231,980.32Z"/><path class="cls-7" d="M3239.13,897q9.21-9.35,23.44-9.35,19,0,27.84,12.53a27.21,27.21,0,0,1,5.22,14.12h-15.76a21.41,21.41,0,0,0-3.95-8.22q-4.29-4.92-12.74-4.92a15.77,15.77,0,0,0-13.56,7q-5,7-5,19.69t5.24,19.07a16.55,16.55,0,0,0,13.33,6.34q8.3,0,12.64-5.44a23.62,23.62,0,0,0,4-8.78h15.6A34,34,0,0,1,3285,959.13q-8.41,7.74-21.57,7.75-16.28,0-25.59-10.47t-9.31-28.86Q3228.54,907.74,3239.13,897Z"/><path class="cls-7" d="M3328.12,936.18h19.14l-9.41-29.78Zm1-47.08h17.8l26.72,75.67h-17.1l-4.86-15.55h-27.78l-5.22,15.55h-16.48Z"/><path class="cls-7" d="M3383.19,889.1H3399v62.07h37.36v13.6h-53.12Z"/><path class="cls-7" d="M3454.52,897q9.22-9.35,23.44-9.35,19,0,27.84,12.53a27.21,27.21,0,0,1,5.22,14.12h-15.76a21.56,21.56,0,0,0-3.94-8.22q-4.31-4.92-12.74-4.92a15.78,15.78,0,0,0-13.57,7q-5,7-5,19.69t5.25,19.07a16.53,16.53,0,0,0,13.33,6.34q8.28,0,12.64-5.44a23.78,23.78,0,0,0,4-8.78h15.61q-2.05,12.38-10.47,20.13t-21.57,7.75q-16.27,0-25.59-10.47t-9.31-28.86Q3443.93,907.74,3454.52,897Z"/><path class="cls-7" d="M3522.89,889.1h16v46.51c0,5.21.62,9,1.84,11.4q2.86,6.36,12.49,6.37t12.43-6.37c1.23-2.4,1.85-6.19,1.85-11.4V889.1h16v46.51q0,12.07-3.73,18.79-7,12.33-26.56,12.32t-26.61-12.32q-3.74-6.72-3.74-18.79Z"/><path class="cls-7" d="M3598.58,889.1h15.76v62.07h37.36v13.6h-53.12Z"/><path class="cls-7" d="M3683.22,936.18h19.14L3693,906.4Zm1-47.08H3702l26.72,75.67h-17.1l-4.86-15.55H3679l-5.22,15.55h-16.48Z"/><path class="cls-7" d="M3793.09,889.1v13.4h-22.56v62.27h-15.87V902.5H3732V889.1Z"/><path class="cls-7" d="M3858.09,902.5h-39.92v16.07h36.64v13.14h-36.64v19.46h41.76v13.6h-57.16V889.1h55.32Z"/><path class="cls-7" d="M3635.4,415.79h19.47V435H3635.4Zm0,48.26h19.47v19.21H3635.4Z"/><path class="cls-7" d="M3742.23,387.69v14.95c-1-.13-2.75-.23-5.17-.29s-4.09.47-5,1.61a5.85,5.85,0,0,0-1.38,3.77v5.93h12v12.95h-12v56.65h-18.24V426.61h-10.22V413.66h10v-4.51q0-11.28,3.79-15.53,4-6.31,19.21-6.32c1.16,0,2.2,0,3.15.1S3740.6,387.56,3742.23,387.69Z"/><path class="cls-7" d="M3791.82,449.1a19.51,19.51,0,0,1-3.5,1.77,28.56,28.56,0,0,1-4.85,1.26l-4.11.77q-5.78,1-8.28,2.52a8.42,8.42,0,0,0-4.25,7.8c0,3.13.87,5.4,2.6,6.79a9.78,9.78,0,0,0,6.33,2.1,18.61,18.61,0,0,0,10.89-3.48q5-3.48,5.17-12.7Zm-11.11-8.57a28.26,28.26,0,0,0,7.26-1.61q3.92-1.68,3.92-5.22c0-2.88-1-4.86-3-6s-4.91-1.64-8.77-1.64q-6.48,0-9.18,3.22a13.3,13.3,0,0,0-2.57,6.44h-17.67q.59-9.21,5.14-15.14,7.26-9.28,24.92-9.28a44.16,44.16,0,0,1,20.43,4.57q8.93,4.57,8.93,17.28v32.22q0,3.34.13,8.12c.13,2.4.49,4,1.09,4.89a6.58,6.58,0,0,0,2.7,2.13v2.71h-19.91a20,20,0,0,1-1.16-4c-.22-1.24-.39-2.66-.51-4.25a37.77,37.77,0,0,1-8.74,7,26.17,26.17,0,0,1-13.36,3.42q-9.51,0-15.71-5.45t-6.2-15.43q0-13,10-18.75,5.46-3.17,16.06-4.52Z"/><path class="cls-7" d="M3840.64,460.83q.59,4.91,2.51,7,3.41,3.68,12.59,3.67a19,19,0,0,0,8.57-1.61,5.4,5.4,0,0,0,.61-9.53q-2.57-1.62-19.07-5.55-11.88-3-16.77-7.41t-4.88-12.63a21.94,21.94,0,0,1,7.61-16.72q7.61-7,21.42-7,13.11,0,21.36,5.25t9.48,18.14h-18.31a11,11,0,0,0-2-5.61q-3-3.74-10.28-3.74c-4,0-6.82.63-8.51,1.87a5.4,5.4,0,0,0-2.54,4.39,4.79,4.79,0,0,0,2.7,4.57q2.7,1.49,19.08,5.09,10.92,2.58,16.38,7.8A17.76,17.76,0,0,1,3886,462a21.42,21.42,0,0,1-7.73,17.05q-7.76,6.6-23.93,6.6-16.51,0-24.38-7a22.77,22.77,0,0,1-7.87-17.82Z"/><path class="cls-7" d="M3892.35,426.74V413.66h9.77V394.07h18.12v19.59h11.36v13.08h-11.36v37.12q0,4.32,1.09,5.38c.72.71,3,1.06,6.67,1.06l1.77,0c.63,0,1.23,0,1.83-.09V483.9l-8.67.32q-13,.45-17.73-4.51-3.07-3.15-3.08-9.73V426.74Z"/><path class="cls-3" d="M4239.66,601.5a28.36,28.36,0,0,0-28.29-28.39H3784a28.35,28.35,0,0,0-28.29,28.39V715.43A28.35,28.35,0,0,0,3784,743.82h427.4a28.36,28.36,0,0,0,28.29-28.39Z"/><path class="cls-3" d="M3725.24,599.44A28.35,28.35,0,0,0,3697,571.06H3269.74a28.36,28.36,0,0,0-28.3,28.38V713.38a28.36,28.36,0,0,0,28.3,28.39H3697a28.36,28.36,0,0,0,28.29-28.39Z"/><path class="cls-3" d="M3189.6,597a28.36,28.36,0,0,0-28.3-28.39H2914a28.36,28.36,0,0,0-28.3,28.39V710.93a28.36,28.36,0,0,0,28.3,28.39H3161.3a28.36,28.36,0,0,0,28.3-28.39Z"/><path class="cls-7" d="M3122.69,412.89q9.67-9.81,24.63-9.81,20,0,29.25,13.16a28.69,28.69,0,0,1,5.49,14.84h-16.57a22.65,22.65,0,0,0-4.14-8.64q-4.51-5.18-13.39-5.18a16.6,16.6,0,0,0-14.25,7.31q-5.22,7.32-5.22,20.7t5.51,20a17.42,17.42,0,0,0,14,6.66q8.72,0,13.29-5.72,2.52-3.08,4.19-9.22h16.41q-2.16,13-11,21.15t-22.67,8.14q-17.1,0-26.89-11T3111.55,445Q3111.55,424.17,3122.69,412.89Z"/><path class="cls-7" d="M3239.76,404.59h18.77L3232,454.22v29.89h-16.57V454.22L3188,404.59h19.52L3224,439.22Z"/><path class="cls-7" d="M3275.68,412.89q9.69-9.81,24.63-9.81,20,0,29.26,13.16a28.41,28.41,0,0,1,5.48,14.84h-16.56a22.37,22.37,0,0,0-4.14-8.64q-4.51-5.18-13.39-5.18a16.58,16.58,0,0,0-14.25,7.31q-5.22,7.32-5.22,20.7t5.52,20a17.39,17.39,0,0,0,14,6.66q8.7,0,13.28-5.72,2.52-3.08,4.19-9.22h16.4q-2.14,13-11,21.15t-22.67,8.14q-17.1,0-26.89-11T3264.55,445Q3264.55,424.17,3275.68,412.89Z"/><path class="cls-7" d="M3347.53,404.59h16.57v65.22h39.25v14.3h-55.82Z"/><rect class="cls-7" x="3413.52" y="404.59" width="16.46" height="79.52"/><path class="cls-7" d="M3445.14,404.59h17.37l31.57,55.51V404.59h15.44v79.52H3493l-32.37-56.49v56.49h-15.44Z"/><path class="cls-7" d="M3578.24,429.4A15.54,15.54,0,0,0,3569,418a22.43,22.43,0,0,0-9.08-1.78,19.72,19.72,0,0,0-15.73,7.26q-6.17,7.25-6.16,21.82t6.67,20.77a21.87,21.87,0,0,0,15.16,6.1q8.34,0,13.67-4.83a20.92,20.92,0,0,0,6.55-12.65h-18.34V441.43h33v42.68h-11l-1.67-9.93a38.16,38.16,0,0,1-8.6,8q-6.57,4.05-16.14,4-15.75,0-25.81-10.95-10.48-11-10.49-30.1,0-19.32,10.59-31t28-11.65q15.12,0,24.29,7.68a28.69,28.69,0,0,1,10.51,19.18Z"/><path class="cls-70" d="M2951.44,630.57V617.29a86.28,86.28,0,0,0,12.89-1.24,18.17,18.17,0,0,0,9.56-5.2,17.23,17.23,0,0,0,3.82-7.12,16.38,16.38,0,0,0,.75-4h16.17V699H2974.7V630.57Z"/><path class="cls-70" d="M3073.4,651.17a14.45,14.45,0,0,1,2.81,6.43,79.39,79.39,0,0,1,.51,10.78v32.78h-14.86v-34a15,15,0,0,0-1.53-7.27c-1.32-2.6-3.85-3.9-7.56-3.9s-6.76,1.29-8.75,3.87-3,6.26-3,11v30.22h-14.5V625.92H3041V652.6a17.9,17.9,0,0,1,7.33-6.78,20.63,20.63,0,0,1,8.75-1.92,23.61,23.61,0,0,1,9.37,1.79A16.31,16.31,0,0,1,3073.4,651.17Z"/><path class="cls-70" d="M3122.47,644.1v15c-.92-.11-1.74-.17-2.45-.21s-1.29-.05-1.73-.05q-8.79,0-11.8,5.74-1.69,3.23-1.69,9.94v26.68h-14.65V645.33H3104v9.73q3.36-5.58,5.87-7.63Q3114,644,3120.53,644l.69,0C3121.41,644,3121.82,644.07,3122.47,644.1Z"/><path class="cls-70" d="M3324,667.21a22.44,22.44,0,0,0,1.91,9.86q3.56,7.18,12.91,7.19a14.27,14.27,0,0,0,10-3.94c2.85-2.63,4.26-6.4,4.26-11.33q0-9.79-7.91-13.08-4.5-1.85-14.19-1.85v-14q9.48-.14,13.24-1.85,6.48-2.88,6.47-11.64a13,13,0,0,0-3.3-9.24q-3.32-3.55-9.32-3.56-6.89,0-10.13,4.38t-3.1,11.71h-18.16a49.48,49.48,0,0,1,2.53-14,31.57,31.57,0,0,1,7.5-10.74,26.13,26.13,0,0,1,9.08-5.34,38.94,38.94,0,0,1,12.9-1.85q14.19,0,22.89,7.36t8.7,19.75a21.93,21.93,0,0,1-5.18,14.79,17.75,17.75,0,0,1-6.82,5.13q2.66,0,7.64,4.59,7.44,6.91,7.44,18.89a31.9,31.9,0,0,1-8.71,22.15q-8.7,9.54-25.76,9.55-21,0-29.2-13.76-4.3-7.33-4.78-19.17Z"/><path class="cls-70" d="M3417.43,684.26q8.67,0,11.36-9.08t2.7-26.18q0-17.94-2.7-26.56t-11.36-8.63q-8.67,0-11.47,8.63t-2.8,26.56q0,17.12,2.8,26.18T3417.43,684.26ZM3451.55,649q0,24.57-7.61,37.86t-26.51,13.28q-18.9,0-26.51-13.28T3383.31,649q0-24.59,7.61-37.93t26.51-13.35q18.9,0,26.51,13.35T3451.55,649Z"/><path class="cls-70" d="M3552.56,646.57a16.11,16.11,0,0,1,3.16,7.17,49.61,49.61,0,0,1,.52,8.25l-.11,35.19h-14.91V661.63a11.66,11.66,0,0,0-1-5.22c-1.29-2.6-3.68-3.9-7.15-3.9q-6,0-8.32,5a15.88,15.88,0,0,0-1.18,6.41v33.24H3508.9V663.94c0-3.32-.34-5.72-1-7.23-1.23-2.69-3.62-4-7.2-4q-6.22,0-8.37,4a15.56,15.56,0,0,0-1.18,6.87v33.6h-14.75V641.45h14.14v8.14a23.2,23.2,0,0,1,5.11-6.19q4.23-3.28,11-3.28c4.26,0,7.69.94,10.32,2.82a16.33,16.33,0,0,1,4.8,6.71,18.57,18.57,0,0,1,7.1-7.23,21.62,21.62,0,0,1,10-2.3,19.42,19.42,0,0,1,7.25,1.43A16.18,16.18,0,0,1,3552.56,646.57Z"/><path class="cls-70" d="M3584.57,634.69h-14.76V621.22h14.76Zm-14.76,6.66h14.76v55.83h-14.76Z"/><path class="cls-70" d="M3649.11,659.58v37.6H3634.2v-34a15.57,15.57,0,0,0-1.17-6.76q-2.15-4.31-8.17-4.3-7.41,0-10.16,6.3a21.56,21.56,0,0,0-1.43,8.5v30.22h-14.51V641.45h14v8.14a24.91,24.91,0,0,1,5.32-6.19A18.35,18.35,0,0,1,3629.5,640q8.64,0,14.12,4.53T3649.11,659.58Z"/><path class="cls-70" d="M3925.68,622q-4.36,4.32-12.14,15.37A126.91,126.91,0,0,0,3893,682.83q-3.35,13.35-3.35,21.91h-20.19q.89-26.7,17.47-55.52,10.71-17.87,17.94-24.92h-49.33l.27-17.53h69.87Z"/><path class="cls-70" d="M3968.2,691.32q8.67,0,11.37-9.07t2.69-26.18q0-17.94-2.69-26.57t-11.37-8.62q-8.67,0-11.47,8.62t-2.79,26.57q0,17.1,2.79,26.18T3968.2,691.32Zm34.12-35.25q0,24.57-7.61,37.85T3968.2,707.2q-18.9,0-26.51-13.28t-7.61-37.85q0-24.59,7.61-37.93t26.51-13.35q18.9,0,26.51,13.35T4002.32,656.07Z"/><path class="cls-70" d="M4033.35,630.93h13.9v39.55l17.63-20.42h17.52l-18.91,20.76,19.66,33.27h-17.08l-13-23.21-5.86,6.13v17.08h-13.9Z"/><path class="cls-70" d="M4125.09,676.7q0-7.73-3.24-11.75a10.65,10.65,0,0,0-8.72-4q-7.44,0-10.28,7a25,25,0,0,0-1.48,9.21,21.11,21.11,0,0,0,1.58,8.42,10.36,10.36,0,0,0,10.33,6.87,11,11,0,0,0,8.39-3.76Q4125.09,684.92,4125.09,676.7Zm-8.24-26.94a17,17,0,0,1,8.34,7.87v-7.82h13.75V701.3q0,10.51-3.52,15.84-6.06,9.17-23.23,9.16-10.38,0-16.93-4.08A15.09,15.09,0,0,1,4088,710h15.39a6.36,6.36,0,0,0,1.94,3.58c1.52,1.3,4.09,1.95,7.69,1.95q7.65,0,10.23-5.13,1.68-3.3,1.68-11.06v-3.49a17.17,17.17,0,0,1-4.36,5.23q-4.21,3.24-11,3.24-10.43,0-16.66-7.35t-6.23-19.89q0-12.11,6-20.35t17-8.24A18.54,18.54,0,0,1,4116.85,649.76Z"/></g></svg>